<?xml version="1.0" encoding="utf-8"?>
<!-- Generator: Adobe Illustrator 19.0.0, SVG Export Plug-In . SVG Version: 6.00 Build 0)  -->
<svg version="1.1" id="Layer_1" xmlns="http://www.w3.org/2000/svg" xmlns:xlink="http://www.w3.org/1999/xlink" x="0px" y="0px"
	 viewBox="0 0 124.5 131.9" style="enable-background:new 0 0 124.5 131.9;" xml:space="preserve">
<style type="text/css">
	.st0{fill:#0E76F7;}
	.st1{fill:#FFFFFF;}
</style>
<g id="XMLID_4_">
	<path id="XMLID_1_" class="st0" d="M0.2,88l-0.5-42.8C-0.4,37.1,4,29.5,11,25.5L50.5,3c6.7-3.9,15-4,21.8-0.2l40,21.7
		c7.2,3.9,11.7,11.4,11.8,19.5l0.5,42.8c0.1,8.2-4.2,15.7-11.3,19.8L73.7,129c-6.7,3.9-15,4-21.8,0.2l-40-21.7
		C4.7,103.6,0.3,96.2,0.2,88z"/>
	<path id="XMLID_8_" class="st1" d="M24.6,47.5l44.1,8.9c0.5,0.1,0.9-0.4,0.7-0.8l-6.7-17.6c-0.2-0.6,0.4-1.1,0.9-0.7l37.2,28.7
		c0.3,0.2,0.3,0.7,0,1L64,95.5c-0.5,0.4-1.1-0.1-0.9-0.7l6.4-17.7c0.2-0.4-0.2-0.9-0.7-0.8l-44.1,9c-0.5,0.1-0.9-0.4-0.6-0.9
		l9.8-17.3c0.3-0.5,0.3-1.1,0-1.5L24,48.3C23.7,47.9,24.1,47.4,24.6,47.5z"/>
</g>
</svg>
