<?xml version="1.0" encoding="utf-8"?>
<!-- Generator: Adobe Illustrator 19.0.0, SVG Export Plug-In . SVG Version: 6.00 Build 0)  -->
<svg version="1.1" id="Layer_1" xmlns="http://www.w3.org/2000/svg" xmlns:xlink="http://www.w3.org/1999/xlink" x="0px" y="0px"
	 viewBox="223.6 576.7 124.8 131.9" style="enable-background:new 223.6 576.7 124.8 131.9;" xml:space="preserve">
<style type="text/css">
	.st0{fill:#CCD1D8;}
	.st1{fill:#FFFFFF;}
</style>
<g id="XMLID_4_">
	<path id="XMLID_1_" class="st0" d="M224.1,664.7l-0.5-42.8c-0.1-8.2,4.2-15.7,11.3-19.8l39.5-22.5c6.7-3.9,15-4,21.8-0.2l40,21.7
		c7.2,3.9,11.7,11.4,11.8,19.5l0.5,42.8c0.1,8.2-4.2,15.7-11.3,19.8l-39.5,22.6c-6.7,3.9-15,4-21.8,0.2l-40-21.7
		C228.6,680.3,224.2,672.8,224.1,664.7z"/>
	<path id="XMLID_8_" class="st1" d="M248.5,624.2l44.1,8.9c0.5,0.1,0.9-0.4,0.7-0.8l-6.7-17.6c-0.2-0.6,0.4-1.1,0.9-0.7l37.2,28.7
		c0.3,0.2,0.3,0.7,0,1l-36.8,28.6c-0.5,0.4-1.1-0.1-0.9-0.7l6.4-17.7c0.2-0.4-0.2-0.9-0.7-0.8l-44.1,9c-0.5,0.1-0.9-0.4-0.6-0.9
		l9.8-17.3c0.3-0.5,0.3-1.1,0-1.5l-9.8-17.2C247.6,624.6,248,624.1,248.5,624.2z"/>
</g>
</svg>
