<?xml version="1.0" encoding="utf-8"?>
<!-- Generator: Adobe Illustrator 19.0.0, SVG Export Plug-In . SVG Version: 6.00 Build 0)  -->
<svg version="1.1" id="Layer_1" xmlns:x="&ns_extend;" xmlns:i="&ns_ai;" xmlns:graph="&ns_graphs;"
	 xmlns="http://www.w3.org/2000/svg" xmlns:xlink="http://www.w3.org/1999/xlink" x="0px" y="0px" viewBox="0 0 255.8 286.9"
	 style="enable-background:new 0 0 255.8 286.9;" xml:space="preserve">
<metadata>
	<sfw  xmlns="&ns_sfw;">
		<slices></slices>
		<sliceSourceBounds  height="286.9" width="255.8" y="-399.7" x="331" bottomLeftOrigin="true"></sliceSourceBounds>
	</sfw>
</metadata>
<g id="XMLID_205_">
	<g id="XMLID_115_">
		<g id="XMLID_116_">
			<path id="XMLID_117_" d="M127.6,286.9c-4.6,0-9.1-1.2-13.1-3.5L13,224.4c-8-4.7-13-13.3-13-22.6L0.3,84.4c0-9.3,5-17.9,13.1-22.5
				L115.3,3.4c8-4.6,18-4.6,26,0.1l101.6,59c8,4.7,13,13.3,13,22.6l-0.3,117.5c0,9.3-5,17.9-13.1,22.5l-101.9,58.5
				C136.6,285.8,132.1,286.9,127.6,286.9z M128.2,11c-2.6,0-5.2,0.7-7.5,2L18.9,71.4c-4.6,2.7-7.5,7.6-7.5,13L11,201.9
				c0,5.3,2.9,10.3,7.5,13l101.6,59c4.6,2.7,10.4,2.7,15,0l101.9-58.5c4.6-2.7,7.5-7.6,7.5-13L244.8,85c0-5.3-2.9-10.3-7.5-13
				L135.8,13C133.5,11.7,130.9,11,128.2,11z"/>
		</g>
	</g>
	<g id="XMLID_81_">
		<g id="XMLID_82_">
			<path id="XMLID_112_" d="M105.8,135.7H57c-7.7,0-14-6.3-14-14v-41c0-7.7,6.3-14,14-14h48.9c7.7,0,14,6.3,14,14v41
				C119.8,129.4,113.6,135.7,105.8,135.7z M57,70.7c-5.5,0-10,4.5-10,10v41c0,5.5,4.5,10,10,10h48.9c5.5,0,10-4.5,10-10v-41
				c0-5.5-4.5-10-10-10H57z"/>
			<path id="XMLID_83_" d="M105.8,139.2H57c-9.6,0-17.5-7.9-17.5-17.5v-41c0-9.6,7.9-17.5,17.5-17.5h48.9c9.6,0,17.5,7.9,17.5,17.5
				v41C123.3,131.4,115.5,139.2,105.8,139.2z M57,74.2c-3.6,0-6.5,2.9-6.5,6.5v41c0,3.6,2.9,6.5,6.5,6.5h48.9c3.6,0,6.5-2.9,6.5-6.5
				v-41c0-3.6-2.9-6.5-6.5-6.5H57z"/>
		</g>
	</g>
	<g id="XMLID_76_">
		<g id="XMLID_77_">
			<path id="XMLID_78_" d="M105.8,221.7H57c-9.6,0-17.5-7.9-17.5-17.5v-41c0-9.6,7.9-17.5,17.5-17.5l0.1,0l48.9,2
				c10.2,0,17.3,6.4,17.3,15.5v41C123.3,213.9,115.5,221.7,105.8,221.7z M56.8,156.7c-3.5,0-6.4,2.9-6.4,6.5v41
				c0,3.6,2.9,6.5,6.5,6.5h48.9c3.6,0,6.5-2.9,6.5-6.5v-41c0-3.9-4.1-4.5-6.5-4.5l-0.1,0L56.8,156.7z"/>
		</g>
	</g>
	<g id="XMLID_71_">
		<g id="XMLID_72_">
			<path id="XMLID_73_" d="M198.8,139.2H150c-9.6,0-17.5-7.9-17.5-17.5v-41c0-9.6,7.9-17.5,17.5-17.5h48.9c9.6,0,17.5,7.9,17.5,17.5
				v41C216.3,131.4,208.5,139.2,198.8,139.2z M150,74.2c-3.6,0-6.5,2.9-6.5,6.5v41c0,3.6,2.9,6.5,6.5,6.5h48.9
				c3.6,0,6.5-2.9,6.5-6.5v-41c0-3.6-2.9-6.5-6.5-6.5H150z"/>
		</g>
	</g>
	<g id="XMLID_66_">
		<g id="XMLID_67_">
			<path id="XMLID_68_" d="M198.8,223.7H150c-9.6,0-17.5-7.9-17.5-17.5v-41c0-9.6,7.9-17.5,17.5-17.5h48.9c9.6,0,17.5,7.9,17.5,17.5
				v41C216.3,215.9,208.5,223.7,198.8,223.7z M150,158.7c-3.6,0-6.5,2.9-6.5,6.5v41c0,3.6,2.9,6.5,6.5,6.5h48.9
				c3.6,0,6.5-2.9,6.5-6.5v-41c0-3.6-2.9-6.5-6.5-6.5H150z"/>
		</g>
	</g>
</g>
</svg>
