<?xml version="1.0" standalone="no"?>
<!DOCTYPE svg PUBLIC "-//W3C//DTD SVG 1.1//EN" "http://www.w3.org/Graphics/SVG/1.1/DTD/svg11.dtd" >
<svg xmlns="http://www.w3.org/2000/svg">
<metadata>Generated by IcoMoon</metadata>
<defs>
<font id="icomoon" horiz-adv-x="1024">
<font-face units-per-em="1024" ascent="960" descent="-64" />
<missing-glyph horiz-adv-x="1024" />
<glyph unicode="&#x20;" horiz-adv-x="512" d="" />
<glyph unicode="&#xe900;" glyph-name="Filled_128px_Baseball-Bat-Ball" d="M1016.784 43.928l-5.424 5.416c-9.096 9.096-23.688 9.272-33.096 0.688l-334.032 334.032c-18.856 18.856-41.968 53.072-60.528 80.56-5.352 7.928-10.352 15.336-14.824 21.728l-29.632 42.464c-20.408 29.256-57.552 73.584-82.784 98.816l-311.128 311.136c-28.072 28.072-73.752 28.072-101.824 0l-22.304-22.304c-13.552-13.544-21.008-31.632-21.008-50.912 0-19.288 7.464-37.36 21.008-50.912l170.136-170.136c-38.896-9.472-69.832-40.864-77.432-81.632-1.168-6.264-1.76-12.688-1.76-19.104 0-57.208 46.544-103.752 103.752-103.752 48.744 0 89.632 33.832 100.696 79.216l15.728-15.736c25.216-25.216 69.544-62.352 98.816-82.784l42.464-29.64c6.4-4.464 13.824-9.48 21.768-14.84 27.48-18.56 61.672-41.656 80.52-60.504l334.032-334.032c-4.040-4.416-6.328-10.072-6.328-16.128 0-6.424 2.496-12.456 7.008-16.976l5.424-5.424c4.52-4.52 10.544-7.008 16.968-7.008s12.456 2.496 16.968 7.008l66.8 66.8c9.376 9.368 9.376 24.6 0.016 33.96zM215.904 472.024c-39.568 0-71.752 32.184-71.752 71.752 0 4.456 0.408 8.912 1.216 13.248 6.32 33.904 35.984 58.504 70.536 58.504 39.56 0 71.752-32.184 71.752-71.752s-32.184-71.752-71.752-71.752z" />
<glyph unicode="&#xe901;" glyph-name="Filled_128px_Baseball" d="M154.472 82.144c13.36 16.848 25.608 34.496 36.768 52.816l-0.704 0.424c-11.392 6.784-15.128 21.504-8.344 32.896 6.64 11.176 20.904 14.912 32.2 8.68 4.216 8.512 8.184 17.16 11.968 25.896l-0.528 0.224c-12.2 5.168-17.904 19.256-12.736 31.472 5.032 11.856 18.488 17.488 30.44 13.048 3.032 9.040 5.832 18.168 8.44 27.36l-0.144 0.032c-12.8 3.464-20.376 16.632-16.92 29.432 3.36 12.432 15.856 19.808 28.296 17.104 1.872 9.416 3.504 18.88 4.936 28.392-12.968 1.832-22.112 13.72-20.456 26.76 1.64 12.808 13.112 21.928 25.832 20.808 0.704 9.608 1.16 19.232 1.424 28.872-12.888 0.264-23.328 10.672-23.504 23.656-0.144 13.032 10.128 23.704 23.064 24.216-0.456 9.624-1.184 19.232-2.096 28.824-0.84-0.088-1.704-0.184-2.528-0.184-11.672 0-21.904 8.528-23.704 20.424-1.968 13.040 6.968 25.184 19.952 27.256-1.624 9.456-3.512 18.84-5.576 28.192-1.888-0.464-3.8-0.744-5.672-0.744-10.36 0-19.92 6.768-23 17.208-3.768 12.712 3.504 26.056 16.2 29.816l0.264 0.080c-2.8 9.128-5.8 18.176-9.032 27.152-2.92-1.168-5.936-1.824-8.904-1.824-9.16 0-17.888 5.256-21.904 14.144-5.44 12.088-0.064 26.296 12.016 31.744l0.608 0.272c-3.968 8.648-8.112 17.208-12.512 25.632-3.832-2.248-8.016-3.368-12.184-3.368-7.984 0-15.8 3.984-20.36 11.256-7.032 11.232-3.624 26.048 7.608 33.088l0.736 0.464c-10.376 16.12-21.656 31.656-33.784 46.56-92.944-92.744-150.52-220.88-150.52-362.224 0-143.24 59.2-272.856 154.36-365.856zM874.112 809.48c-11.904-14.688-22.984-29.976-33.184-45.832l0.736-0.464c11.232-7.040 14.64-21.848 7.608-33.088-4.56-7.272-12.376-11.256-20.36-11.256-4.16 0-8.344 1.112-12.16 3.352-4.408-8.424-8.544-16.984-12.512-25.632l0.576-0.256c12.080-5.448 17.456-19.656 12.016-31.744-4.016-8.88-12.752-14.144-21.904-14.144-2.952 0-5.936 0.648-8.832 1.8-3.232-8.968-6.232-18.024-9.032-27.152l0.184-0.056c12.704-3.76 19.968-17.104 16.2-29.816-3.080-10.448-12.64-17.208-23-17.208-1.84 0-3.704 0.272-5.56 0.72-2.064-9.352-3.952-18.752-5.576-28.2 12.936-2.128 21.8-14.224 19.84-27.224-1.8-11.888-12.032-20.424-23.704-20.424-0.784 0-1.592 0.104-2.392 0.176-0.904-9.592-1.64-19.2-2.096-28.832 12.856-0.576 23.064-11.216 22.92-24.2-0.16-12.936-10.544-23.296-23.36-23.648 0.264-9.632 0.704-19.264 1.408-28.88 12.656 1.048 24.080-8.048 25.704-20.808 1.64-12.992-7.44-24.832-20.328-26.728 1.44-9.512 3.048-18.984 4.92-28.408 12.376 2.648 24.84-4.728 28.184-17.12 3.456-12.8-4.128-25.976-16.92-29.432l-0.048-0.016c2.592-9.184 5.392-18.312 8.424-27.352 11.936 4.384 25.344-1.224 30.36-13.072 5.168-12.208-0.528-26.296-12.736-31.472l-0.472-0.2c3.768-8.744 7.736-17.384 11.936-25.904 11.28 6.216 25.528 2.472 32.168-8.696 6.784-11.392 3.048-26.12-8.344-32.896l-0.688-0.416c11-18.056 23.048-35.464 36.184-52.096 94.728 92.96 153.632 222.28 153.632 365.144 0 140.968-57.296 268.816-149.792 361.48zM792.688 110.312l-0.656-0.392c-3.856-2.288-8.080-3.376-12.248-3.376-8.184 0-16.168 4.184-20.656 11.728-6.784 11.392-3.032 26.12 8.36 32.896l1.736 1.040c-5.264 10.4-10.2 20.992-14.872 31.728l-0.472-0.184c-3.048-1.296-6.232-1.912-9.344-1.912-9.36 0-18.232 5.496-22.112 14.64-5.168 12.2 0.512 26.288 12.72 31.464l1.72 0.728c-3.832 11.048-7.296 22.248-10.512 33.568l-0.496-0.136c-2.096-0.56-4.2-0.832-6.264-0.832-10.576 0-20.264 7.048-23.16 17.752-3.456 12.8 4.112 25.976 16.904 29.432l1.56 0.424c-2.36 11.504-4.36 23.136-6.112 34.848l-0.768-0.104c-1.032-0.136-2.048-0.192-3.064-0.192-11.904 0-22.232 8.848-23.784 20.968-1.672 13.16 7.64 25.168 20.784 26.832l1.344 0.168c-0.888 11.744-1.408 23.568-1.704 35.456l-1.184 0.016c-13.248 0.16-23.872 9.6-23.72 22.848 0.168 13.16 10.872 22.28 24 22.28 0.096 0 0.184 0 0.296 0h1c0.544 16 1.44 25.088 2.576 36.808l-1.408 0.928c-13.112 1.984-22.144 15.688-20.16 28.8 1.976 13.104 14.256 21.464 27.304 21.464h0.656c2 8 4.264 22.152 6.872 33.584l-1.56-0.088c-12.704 3.768-19.968 16.832-16.2 29.544 3.752 12.704 17.112 19.816 29.816 16.080l0.424-0.192c3.472 11.248 7.144 22.352 11.2 33.304l-1.64 0.72c-12.080 5.456-17.456 19.664-12 31.744 5.456 12.088 19.672 17.448 31.752 11.992l0.44-0.2c4.936 10.632 10.064 21.152 15.576 31.424l-1.64 1.032c-11.232 7.032-14.64 21.84-7.608 33.080 7.048 11.232 21.856 14.632 33.096 7.592l0.656-0.408c11.832 18.28 24.64 35.88 38.424 52.688-88.704 73.64-202.544 118-326.56 118-123.656 0-237.2-44.080-325.784-117.336 14-17.008 26.984-34.832 38.984-53.368l0.656 0.416c11.248 7.040 26.048 3.64 33.096-7.592 7.032-11.232 3.624-26.048-7.608-33.080l-1.624-1.024c5.512-10.272 10.624-20.8 15.56-31.432l0.44 0.2c12.080 5.456 26.296 0.088 31.752-12 5.456-12.080 0.080-26.296-12-31.752l-1.624-0.736c4.064-10.952 7.72-22.096 11.184-33.336l0.424 0.128c12.72 3.736 26.064-3.504 29.816-16.216 3.768-12.712-3.504-26.056-16.2-29.816l-1.544-0.456c2.608-11.448 4.856-23.024 6.856-34.688l0.656 0.104c13.096 1.904 25.328-7.048 27.296-20.16 1.984-13.112-7.048-25.336-20.16-27.312l-1.408-1.648c1.136-11.704 2.032-20.792 2.576-36.792h1c0.112 0 0.2 0 0.296 0 13.128 0 23.832-9.128 24-22.28 0.16-13.248-10.472-23.416-23.72-23.568l-1.184 0.344c-0.296-11.88-0.816-23.528-1.704-35.272l1.344-0.080c13.144-1.672 22.456-13.64 20.784-26.8-1.544-12.12-11.872-20.944-23.784-20.944-1.016 0-2.032 0.072-3.064 0.208l-0.768 0.104c-1.752-11.72-3.752-23.336-6.112-34.848l1.568-0.416c12.8-3.456 20.36-16.632 16.904-29.432-2.888-10.704-12.576-17.752-23.16-17.752-2.064 0-4.168 0.272-6.264 0.832l-0.488 0.136c-3.216-11.32-6.704-22.512-10.528-33.56l1.704-0.728c12.2-5.168 17.904-19.256 12.736-31.472-3.872-9.144-12.752-14.64-22.112-14.64-3.112 0-6.296 0.616-9.344 1.904l-0.456 0.192c-4.688-10.736-9.624-21.328-14.904-31.72l1.752-1.048c11.392-6.784 15.128-21.504 8.36-32.896-4.496-7.544-12.472-11.728-20.656-11.728-4.168 0-8.408 1.088-12.248 3.376l-0.656 0.392c-12.84-20.952-26.92-41.064-42.248-60.168 87.952-71.24 199.856-114.040 321.608-114.040 122.128 0 234.344 43.040 322.424 114.68-15.144 18.912-29.032 38.816-41.736 59.536z" />
<glyph unicode="&#xe902;" glyph-name="Filled_128px_Basketball-Net" d="M752.008 416.376c0 21.76-17.944 39.624-40 39.624h-399.192c-22.056 0-40-17.864-40-39.624 0-20.12 15.392-36.664 35.144-39.056l60.432-301.064c-0.112-0.752-0.392-1.536-0.392-2.32v-121.936c0-8.832 7.168-16 16-16s16 7.168 16 16v40h32v-40c0-8.832 7.168-16 16-16s16 7.168 16 16v40h32v-40c0-8.832 7.168-16 16-16s16 7.168 16 16v40h32v-40c0-8.832 7.168-16 16-16s16 7.168 16 16v40h32v-40c0-8.832 7.168-16 16-16s16 7.168 16 16v121.936c0 0.552 0.136 1.080 0.080 1.616l60.848 301.784c19.656 2.472 35.080 18.984 35.080 39.040zM626.056 88h-32.504l29.144 288h61.624l-58.264-288zM398.944 88l-58.256 288h61.624l29.144-288h-32.512zM463.616 88l-29.144 288h61.944l0.024-288h-32.824zM528.44 88l-0.024 288h62.112l-29.144-288h-32.944zM400 24v32h32v-32h-32zM464 24v32h32v-32h-32zM528 24v32h32v-32h-32zM592 24v32h32v-32h-32zM952 952c0 4.416-3.584 8-8 8h-864c-4.416 0-8-3.584-8-8v-712c0-4.416 3.584-8 8-8h864c4.416 0 8 3.584 8 8v712zM872 312h-720v568h720v-568z" />
<glyph unicode="&#xe903;" glyph-name="Filled_128px_Bike" d="M823.928 531.704c-27.792 0-54.272-5.712-78.336-16.008l-66.072 127.912 21 44.392h18.144c17.648 0 32 14.352 32 32s-14.352 32-32 32h-109.664c-17.648 0-32-14.352-32-32s14.352-32 32-32h55.832l-12.168-23.072-370.424-0.928c-1.064 0 0 0-1.104 0-14.72 0-26.776 2.096-34.856 9.912-6.688 6.48-10.376 16.576-10.376 25.912 0 17.312 12.936 36.176 41.824 36.176h18.072c8.832 0 16 7.168 16 16s-7.168 16-16 16h-18.072c-48.464 0-73.824-36.016-73.824-69.208 0-18.080 7.152-36.16 20.136-48.712 7.368-7.136 19.224-15.888 36.936-19.568l-26.304-101.568c-11.248 1.976-22.792 2.912-34.592 2.912-110.216 0-199.88-89.736-199.88-199.952 0-110.208 89.664-199.912 199.88-199.912s199.864 89.64 199.864 199.848c0 87.256-56.216 161.568-134.312 188.776l21.744 83.688 169.808-237.488c-6.552-10.096-10.648-22.096-10.648-35 0-27.536 17.472-51.032 41.472-60.256v-15.56h-48.248c-4.472 0-7.76-7.536-7.76-11.952v-24c0-4.408 3.288-4.048 7.752-4.048h72.408c4.472 0 7.84-0.36 7.84 4.048v47.984c0 0.512 7.432 1.296 10.896 2.416l99.88 9.736c22.824-85.264 100.752-148.24 193.112-148.24 110.216 0 199.896 89.664 199.896 199.872 0.008 110.224-89.64 199.888-199.856 199.888zM352.464 331.824c0-84.024-68.36-152.392-152.392-152.392s-152.4 68.368-152.4 152.392c0 84.032 68.36 152.4 152.392 152.4 7.688 0 15.184-0.76 22.576-1.856l-31.064-119.576c-13.648-3.752-23.752-16.144-23.752-30.968 0-17.776 14.464-32.232 32.24-32.232s32.24 14.464 32.24 32.232c0 9.016-3.744 17.16-9.728 23.016l31.032 119.48c57.656-21.736 98.856-77.32 98.856-142.496zM717.288 500.76c-41.904-26.544-73.304-68.208-86.448-117.304l-75.336 9.264 10.56 23.28h17.368c4.384 0 8.56-0.248 8.56 4.176v24c0 3.64-2.776 6.584-6.080 7.552l76.224 154.496 55.152-105.464zM679 378.76c10.68 32.888 32.216 60.92 60.416 79.792l47.344-90.304-107.76 10.512zM636.832 632l-86.688-176h-37.816c-4.392 0-8.328-7.408-8.328-11.824v-48.24c-8-0.896-16.168-1.2-23.312-5.032l-170.6 241.096h326.744zM823.928 179.432c-67.648 0-125.072 44.336-144.92 105.464l146.48 14.288c1.384 0.144 2.688 0.496 3.936 0.96 15.16 2.624 26.744 15.792 26.744 31.68 0 15.896-11.584 29.064-26.744 31.688-1.248 0.464-2.552 0.824-3.936 0.952l-0.632 0.064-57.064 108.84c17.4 6.928 36.304 10.848 56.144 10.848 84.032 0 152.392-68.368 152.392-152.4-0.008-84.016-68.368-152.384-152.4-152.384z" />
<glyph unicode="&#xe904;" glyph-name="Filled_128px_Billiard-Balls" d="M614.4 88.248c0-56.554-45.846-102.4-102.4-102.4s-102.4 45.846-102.4 102.4c0 56.554 45.846 102.4 102.4 102.4s102.4-45.846 102.4-102.4zM409.6 88.248c0-56.554-45.846-102.4-102.4-102.4s-102.4 45.846-102.4 102.4c0 56.554 45.846 102.4 102.4 102.4s102.4-45.846 102.4-102.4zM204.808 88.248c0-56.554-45.846-102.4-102.4-102.4s-102.4 45.846-102.4 102.4c0 56.554 45.846 102.4 102.4 102.4s102.4-45.846 102.4-102.4zM819.2 88.248c0-56.554-45.846-102.4-102.4-102.4s-102.4 45.846-102.4 102.4c0 56.554 45.846 102.4 102.4 102.4s102.4-45.846 102.4-102.4zM614.4 448.24c0-56.554-45.846-102.4-102.4-102.4s-102.4 45.846-102.4 102.4c0 56.554 45.846 102.4 102.4 102.4s102.4-45.846 102.4-102.4zM614.4 807.752c0-56.554-45.846-102.4-102.4-102.4s-102.4 45.846-102.4 102.4c0 56.554 45.846 102.4 102.4 102.4s102.4-45.846 102.4-102.4zM307.2 345.84c33.704 0 63.512 16.352 82.168 41.488 0.064 0.040 0.128 0.080 0.2 0.12l-0.064 0.064c12.56 17 20.096 37.96 20.096 60.728 0 56.552-45.856 102.4-102.408 102.4-20.64 0-39.816-6.152-55.888-16.656l-0.080 0.072c-0.048-0.064-0.080-0.136-0.128-0.2-27.864-18.296-46.296-49.784-46.296-85.616 0-56.552 45.84-102.4 102.4-102.4zM819.2 448.24c0-56.554-45.846-102.4-102.4-102.4s-102.4 45.846-102.4 102.4c0 56.554 45.846 102.4 102.4 102.4s102.4-45.846 102.4-102.4zM716.808 268.424c0-56.554-45.846-102.4-102.4-102.4s-102.4 45.846-102.4 102.4c0 56.554 45.846 102.4 102.4 102.4s102.4-45.846 102.4-102.4zM512.008 268.424c0-56.554-45.846-102.4-102.4-102.4s-102.4 45.846-102.4 102.4c0 56.554 45.846 102.4 102.4 102.4s102.4-45.846 102.4-102.4zM716.808 627.48c0-56.554-45.846-102.4-102.4-102.4s-102.4 45.846-102.4 102.4c0 56.554 45.846 102.4 102.4 102.4s102.4-45.846 102.4-102.4zM512.008 627.48c0-56.554-45.846-102.4-102.4-102.4s-102.4 45.846-102.4 102.4c0 56.554 45.846 102.4 102.4 102.4s102.4-45.846 102.4-102.4zM307.2 268.424c0-56.554-45.846-102.4-102.4-102.4s-102.4 45.846-102.4 102.4c0 56.554 45.846 102.4 102.4 102.4s102.4-45.846 102.4-102.4zM921.6 268.424c0-56.554-45.846-102.4-102.4-102.4s-102.4 45.846-102.4 102.4c0 56.554 45.846 102.4 102.4 102.4s102.4-45.846 102.4-102.4zM1024.008 88.248c0-56.554-45.846-102.4-102.4-102.4s-102.4 45.846-102.4 102.4c0 56.554 45.846 102.4 102.4 102.4s102.4-45.846 102.4-102.4z" />
<glyph unicode="&#xe905;" glyph-name="Filled_128px_Billiard-Cue" d="M1019.656 18.56l-978.64 934.504c-9.072 9.072-24.88 9.072-33.944 0-4.528-4.528-7.024-10.56-7.024-16.968s2.496-12.44 6.888-16.832l917.448-960.768c0.144-0.168 0.192-0.368 0.352-0.528 0.128-0.128 0.288-0.168 0.424-0.28l16.552-17.336c1.928-1.92 5.4-4.216 11.048-4.216 13.776 0 32.256 13.584 44.96 26.288 19.44 19.424 33.784 44.28 21.936 56.136z" />
<glyph unicode="&#xe906;" glyph-name="Filled_128px_Bowlingball" d="M512 960.032c-282.336 0-512.032-229.696-512.032-512.032s229.696-512.032 512.032-512.032 512.032 229.696 512.032 512.032-229.696 512.032-512.032 512.032zM391.944 279.856c30.888 0 56.032-25.136 56.032-56.024s-25.144-56.024-56.032-56.024-56.016 25.136-56.016 56.024 25.128 56.024 56.016 56.024zM512 464.216c30.888 0 56.024-25.136 56.024-56.024s-25.136-56.024-56.024-56.024-56.024 25.136-56.024 56.024 25.136 56.024 56.024 56.024zM631.648 167.816c-30.888 0-56.016 25.136-56.016 56.024s25.128 56.024 56.016 56.024 56.032-25.136 56.032-56.024-25.144-56.024-56.032-56.024z" />
<glyph unicode="&#xe907;" glyph-name="Filled_128px_Boxing-Glove" d="M832 848c0 61.76-46.24 112-108 112h-303.752c-61.752 0-116.248-50.24-116.248-112v-128.208c56-4.248 104-52.72 104-111.696v-199.080c0-8.832-7.168-16-16-16s-16 7.168-16 16v199.088c0 44.112-31.92 79.896-76.032 79.896h-32.032c-44.112 0-83.936-35.784-83.936-79.896v-223.352c0-54.736 48-112.856 112-153.848v-215.568c0-51.528 125.712-79.336 244-79.336s244 27.808 244 79.336v265.664c32 32.304 48 68.504 48 103.272v463.728z" />
<glyph unicode="&#xe908;" glyph-name="Filled_128px_Chesspiece" d="M704-8v63.504c0 38.872-25.32 71.888-60.344 83.504-6.648 16.288-20.216 28.528-36.448 33.904l-15.456 371.088h0.352c13.232 0 24 10.768 24 24s-10.768 24-24 24h-2.352l-4.672 112.064c11.448 2.448 21.184 10.864 23.496 21.216l30.496 136.992c1.368 6.144 0.008 12.288-3.824 17.064-4.344 5.424-11.384 8.664-19.32 8.664h-63.928v32c0 22.056-17.824 40-40.128 40-22.048 0-39.872-17.944-39.872-40v-32h-63.536c-7.936 0-14.984-3.232-19.328-8.656-3.832-4.776-5.184-10.848-3.824-16.992l30.496-137.008c2.312-10.352 12.048-18.824 23.496-21.264l-4.664-112.080h-2.336c-13.232 0-24-10.768-24-24s10.768-24 24-24h0.776l-15.92-371.096c-16.2-5.376-29.808-17.608-36.464-33.84-35.16-11.544-60.696-44.592-60.696-83.56v-63.504c-16 0-24-10.768-24-24v-7.336c0-13.232 10.864-24.664 24.104-24.664h384c13.232 0 23.896 11.432 23.896 24.664v7.336c0 13.232-8 24-24 24z" />
<glyph unicode="&#xe909;" glyph-name="Filled_128px_Dart" d="M1019.016-36.696l-98.168 98.168c15.528 20.36 24.128 44.96 24.248 70.888 0.16 31.328-11.904 60.736-33.952 82.784-0.472 0.472-1.048 0.72-1.576 1.048-0.328 0.544-0.592 1.144-1.064 1.608l-49.2 49.184c-14.048 14.072-35.968 15.544-51.936 4.608l-384.152 277.4-100.048 404.92c-0.688 2.8-2.84 5.008-5.624 5.784-2.768 0.8-5.752-0.008-7.8-2.048l-106.664-105.96c-1.504-1.504-3.080-3.528-3.080-5.656v-86.032h-85.752c-2.128 0-4.16-1.424-5.656-2.928l-105.968-106.256c-2.032-2.032-2.816-5.16-2.048-7.944 0.784-2.784 2.984-4.992 5.8-5.696l404.28-99.912 277.656-384.64c-11.144-15.984-9.752-38.064 4.392-52.208l49.2-49.208c0.472-0.472 1.048-0.728 1.576-1.056 0.328-0.536 0.592-1.12 1.064-1.584 22.608-22.616 52.36-33.912 82.2-33.896 25.184 0 50.376 8.16 71.472 24.216l98.184-98.192c3.112-3.128 7.2-4.688 11.296-4.688s8.2 1.56 11.312 4.688c6.256 6.232 6.256 16.36 0.008 22.608z" />
<glyph unicode="&#xe90a;" glyph-name="Filled_128px_Darts" d="M590.856 404.168l-266.824 266.816 26.312 71.848c1.112 2.992 0.36 6.352-1.888 8.616l-206.16 206.16c-1.968 1.968-4.84 2.8-7.56 2.2s-4.968-2.56-5.92-5.184l-33.016-90.16-90.176-33.008c-2.624-0.968-4.576-3.2-5.184-5.936-0.592-2.736 0.232-5.584 2.216-7.56l206.144-206.152c1.56-1.568 3.656-2.4 5.8-2.4 0.952 0 1.904 0.16 2.832 0.496l71.84 26.312 266.808-266.816c4.8-4.808 11.096-7.2 17.392-7.2s12.576 2.4 17.392 7.2c9.592 9.6 9.592 25.168-0.008 34.768zM573.472 561.168c-96.312 0-174.376-78.072-174.376-174.368 0-96.312 78.064-174.392 174.376-174.392s174.368 78.080 174.368 174.392c0 96.296-78.056 174.368-174.368 174.368zM573.472 316.248c-38.952 0-70.544 31.576-70.544 70.544 0 38.952 31.592 70.52 70.544 70.52s70.528-31.56 70.528-70.512c0-38.968-31.576-70.552-70.528-70.552zM573.472 755.752c-203.784 0-368.968-165.184-368.968-368.968 0-203.768 165.184-368.96 368.968-368.96s368.968 165.192 368.968 368.96c0 203.776-165.192 368.968-368.968 368.968zM572.968 117.344c-148.8 0-269.44 120.64-269.44 269.456 0 148.8 120.64 269.424 269.44 269.424 148.816 0 269.44-120.624 269.44-269.424 0-148.816-120.624-269.456-269.44-269.456z" />
<glyph unicode="&#xe90b;" glyph-name="Filled_128px_Dumbbell" d="M768 625.8v205.952c0 70.576-57.232 128.248-127.808 128.248h-256.768c-70.576 0-127.424-57.672-127.424-128.248v-205.952c-128-85.312-200.768-226.336-200.768-378.112 0-114.968 42.904-224.672 121.064-309.368 1.512-1.64 3.504-2.32 5.736-2.32h659.552c2.232 0 4.36 0.68 5.88 2.32 78.16 84.688 121.104 194.52 121.104 309.496 0 151.768-72.568 292.672-200.568 377.984zM383.424 864h256.768c17.64 0 31.808-14.608 31.808-32.248v-156.272c-48 19.296-104.872 29.064-160 29.064s-112-9.776-160-29.064v156.272c0 17.64 13.784 32.248 31.424 32.248z" />
<glyph unicode="&#xe90c;" glyph-name="Filled_128px_Football-Helmet" d="M1000.208 344h-260.432c-11.752 40-23.232 75.856-32.36 105.128 29.888 39.28 80.424 60.128 150.376 60.128 2.392 0 4.656 1.512 6.176 3.36 1.52 1.856 2.136 4.504 1.664 6.848-2.736 13.88-6.344 27.856-10.496 41.624 9.888 6.2 14.112 18.864 9.328 29.88-3.816 8.776-12.464 14.472-22.032 14.472-1.064 0-2.096-0.168-3.144-0.304-68.688 162.008-225.736 266.336-402.216 266.336-240.904 0-436.888-195.984-436.888-436.88 0-126.864 55.064-247.296 151.048-330.4 2.024-1.752 4.784-2.36 7.36-1.672 5.624 1.544 11.216 2.84 16.816 4.040 3.072 0.648 6.16 1.2 9.232 1.752 2.2 0.392 4.408 0.784 6.592 1.136 4.144 0.632 8.288 1.208 12.456 1.664 0.672 0.072 1.344 0.136 2.016 0.2 20 2.040 40.264 2 60.752-0.144 0.592-0.064 1.184-0.136 1.784-0.2 13.912-1.528 27.936-4.096 42.048-7.544 2.448-0.6 4.88-1.184 7.328-1.84 3.504-0.936 7-1.944 10.512-3 3.616-1.096 7.248-2.264 10.872-3.488 2.704-0.904 5.392-1.752 8.096-2.72 6.216-2.232 12.456-4.656 18.704-7.256 2.112-0.872 4.216-1.832 6.32-2.744 4.888-2.128 9.792-4.344 14.696-6.688 2.064-0.984 4.128-1.968 6.184-2.984 6.736-3.344 13.488-6.824 20.24-10.568 22.488-12.48 44.648-21.848 66.336-28.096 21.808-6.32 43-9.496 63.168-9.496 23.36 0 45.296 4.36 65.28 12.872 0.584 0.248 1.168 0.496 1.752 0.76 3.904 1.728 7.728 3.6 11.472 5.656 0.92 0.496 1.872 0.96 2.792 1.48 3.632 2.096 7.184 4.328 10.648 6.736 0.312 0.216 0.584 0.456 0.888 0.672 1.064 0.76 2.080 1.56 3.128 2.344 3.064 2.312 6.016 4.72 8.84 7.232 0.72 0.64 1.456 1.248 2.16 1.912 3.072 2.856 5.92 5.88 8.68 8.992 0.56 0.624 1.208 1.168 1.76 1.824 0.44 0.504 0.792 1.072 1.216 1.576 2.28 2.76 4.472 5.584 6.504 8.504 0.984 1.408 1.88 2.856 2.808 4.296 1.328 2.056 2.584 4.144 3.792 6.264 0.816 1.44 1.648 2.848 2.416 4.312 1.672 3.232 3.184 6.528 4.592 9.888 0.528 1.28 1.008 2.576 1.504 3.88 1.128 2.96 2.16 5.96 3.064 9.008 0.264 0.888 0.576 1.768 0.824 2.656 1.080 3.888 1.936 7.84 2.648 11.84 0.176 0.968 0.328 1.944 0.488 2.92 0.608 3.936 1.096 7.888 1.352 11.896 0.024 0.256 0.056 0.504 0.072 0.768 0.248 4.224 0.24 8.488 0.096 12.768-0.048 0.984-0.096 1.968-0.152 2.96-0.248 4.28-0.632 6.904-1.296 11.216-1.016 6.416-2.296 12.224-3.72 20.224h48.928c1.464 0 2.848-8.888 4.176-12.912 33.448-101.952 111.2-139.088 155.312-139.088h105.44c13.232 0 23.792 14.392 23.792 27.624v247.912c0 13.24-10.552 20.464-23.792 20.464zM976 200v-104h-81.224c-28.704 0-83.344 32-108.984 104h190.208zM976 296v-48h-205.76c-4.832 16-10 32-15.328 48h221.088zM678.632 248c-1.656 16-2.952 24.968-3.856 35.544l42.848-27.696 2.232-7.848h-41.224zM673.52 342.656c0.728 14.248 2.392 27.6 4.896 40.048 5.416-17.28 11.12-35.44 16.848-53.68l-21.744 13.632z" />
<glyph unicode="&#xe90d;" glyph-name="Filled_128px_Football" d="M779.816 716.288c-147.768 147.768-357.64 243.24-534.648 243.24-81.16 0-146.864-21.016-185.032-59.184-120.56-120.552-59.304-477.032 184.056-720.392 147.752-147.76 357.616-243.952 534.64-243.952 0.016 0 0.016 0 0.032 0 81.128 0 146.84 21.728 185 59.888 120.568 120.56 59.304 477.040-184.048 720.4zM840.6 217.232l-31.72-31.72 23.608-23.6c9.376-9.376 9.376-24.568 0-33.936-4.688-4.688-10.832-7.032-16.968-7.032s-12.28 2.344-16.968 7.032l-23.608 23.6-31.712-31.712c-4.68-4.688-10.832-7.032-16.968-7.032s-12.288 2.344-16.968 7.032c-9.376 9.368-9.376 24.568 0 33.936l31.72 31.72-23.112 23.112-31.712-31.712c-4.688-4.688-10.832-7.032-16.976-7.032s-12.288 2.344-16.968 7.024c-9.376 9.376-9.376 24.568-0.008 33.944l31.72 31.72-22.4 22.4-31.712-31.72c-4.688-4.68-10.832-7.024-16.976-7.024s-12.288 2.344-16.968 7.024c-9.376 9.376-9.376 24.568-0.008 33.944l31.72 31.72-23.112 23.112-31.72-31.712c-4.68-4.688-10.832-7.032-16.968-7.032s-12.28 2.344-16.968 7.032c-9.376 9.368-9.376 24.568 0 33.944l31.72 31.712-23.112 23.104-31.72-31.72c-4.68-4.68-10.832-7.024-16.968-7.024s-12.28 2.344-16.968 7.032c-9.376 9.368-9.376 24.568 0 33.944l31.72 31.712-22.408 22.4-31.72-31.712c-4.68-4.68-10.832-7.024-16.968-7.024s-12.28 2.344-16.968 7.032c-9.376 9.368-9.376 24.56 0 33.944l31.72 31.712-23.112 23.104-31.712-31.712c-4.688-4.688-10.832-7.032-16.976-7.032s-12.28 2.344-16.968 7.024c-9.376 9.376-9.376 24.576 0 33.944l31.72 31.72-23.112 23.104-31.712-31.712c-4.688-4.688-10.832-7.032-16.976-7.032s-12.28 2.344-16.968 7.024c-9.376 9.376-9.376 24.568 0 33.944l31.72 31.72-22.408 22.4-31.712-31.712c-4.688-4.688-10.832-7.032-16.976-7.032s-12.28 2.344-16.968 7.024c-9.376 9.376-9.376 24.568 0 33.944l31.72 31.72-23.112 23.112-31.72-31.72c-4.688-4.68-10.832-7.024-16.968-7.024s-12.28 2.344-16.968 7.032c-9.376 9.368-9.376 24.568 0 33.944l31.72 31.712-39.048 39.040c-9.376 9.368-9.376 24.568 0 33.936 9.368 9.376 24.568 9.376 33.936 0l39.048-39.048 31.72 31.72c9.376 9.368 24.568 9.368 33.936 0 9.376-9.368 9.376-24.568 0-33.944l-31.72-31.72 23.112-23.104 31.72 31.72c9.376 9.376 24.568 9.368 33.936 0 9.376-9.376 9.376-24.576 0-33.944l-31.72-31.72 22.408-22.408 31.72 31.72c9.376 9.376 24.568 9.368 33.936 0 9.376-9.376 9.376-24.568 0-33.944l-31.72-31.72 23.112-23.112 31.72 31.72c9.376 9.376 24.568 9.368 33.936 0 9.376-9.376 9.376-24.568 0-33.944l-31.712-31.72 23.112-23.112 31.72 31.72c9.376 9.368 24.576 9.368 33.944-0.008 9.368-9.368 9.368-24.56-0.008-33.936l-31.72-31.72 22.408-22.4 31.72 31.72c9.376 9.368 24.576 9.36 33.944 0 9.368-9.368 9.368-24.568-0.008-33.944l-31.72-31.72 23.112-23.104 31.72 31.72c9.376 9.368 24.576 9.368 33.944 0s9.368-24.568-0.008-33.944l-31.72-31.72 23.112-23.104 31.72 31.712c9.376 9.368 24.576 9.368 33.936 0 9.376-9.376 9.376-24.568 0.008-33.944l-31.72-31.72 22.4-22.4 31.72 31.712c9.376 9.376 24.576 9.368 33.936 0 9.376-9.376 9.376-24.568 0.008-33.944l-31.72-31.72 23.104-23.112 31.72 31.72c9.376 9.376 24.576 9.376 33.936 0 9.368-9.352 9.368-24.544-0.008-33.92z" />
<glyph unicode="&#xe90e;" glyph-name="Filled_128px_Golf" d="M512.032 556.272c-51.904 0-102.872-3.912-152.032-11.376v85.712l232.112 101.672c2.904 1.272 4.792 4.152 4.792 7.328s-1.88 6.056-4.792 7.328l-232.112 101.68v11.384c0 13.232-10.768 24-24 24s-24-10.768-24-24v-323.6c-189.712-39.4-312-130.184-312-232.328v-39.944c0-139.024 229.656-252.128 512-252.128s512 113.104 512 252.136v39.944c0 139.056-229.624 252.192-511.968 252.192zM512.104 273.328c-42.416 0-71.976 16.2-71.976 30.744 0 11.408 17.712 22.92 42.92 27.96l4.936 0.896c7.728 1.256 15.84 1.888 24.12 1.888 42.416 0 71.976-16.2 71.976-30.744s-29.568-30.744-71.976-30.744z" />
<glyph unicode="&#xe90f;" glyph-name="Filled_128px_Heavy-Weights" d="M1015.832 568h-224c-4.424 0-7.832-4.208-7.832-8.624v-87.376h-544v87.376c0 4.416-3.208 8.624-7.624 8.624h-224c-4.416 0-8.376-4.208-8.376-8.624v-223.376c0-4.416 3.96-8 8.376-8h224c4.416 0 7.624 3.584 7.624 8v88h544v-88c0-4.416 3.408-8 7.832-8h224c4.416 0 8.168 3.584 8.168 8v223.376c0 4.416-3.752 8.624-8.168 8.624z" />
<glyph unicode="&#xe910;" glyph-name="Filled_128px_Hockey-Court" d="M376.312 464c7.736 72 65.544 121 135.568 121s127.832-49 135.576-121h208.544v428.736c0 37.096-29.832 67.264-66.92 67.264h-180.8c0-1.544-0.152-3.12-0.624-4.68-13.032-42.624-51.536-71.256-95.808-71.256-44.264 0-82.768 28.632-95.8 71.256-0.48 1.56-0.624 3.136-0.624 4.68h-180.304c-37.088 0-67.12-30.168-67.12-67.264v-428.736h208.312zM640.432 839.952c57.344 0 104-46.656 104-104s-46.656-104-104-104-104 46.656-104 104 46.648 104 104 104zM384.424 839.952c57.344 0 104-46.656 104-104s-46.656-104-104-104-104 46.656-104 104 46.656 104 104 104zM511.88 553c-52.344 0-95.696-41-103.232-89h206.472c-7.536 48-50.896 89-103.24 89zM511.848-20.456c-28.32 0-53.176-19.544-63.424-43.544h126.856c-10.256 24-35.112 43.544-63.432 43.544zM384.424 663.952c39.696 0 72 32.296 72 72s-32.304 72-72 72-72-32.296-72-72 32.304-72 72-72zM384.424 759.096c12.76 0 23.144-10.384 23.144-23.144s-10.384-23.144-23.144-23.144-23.144 10.384-23.144 23.144 10.384 23.144 23.144 23.144zM511.848 916.064c28.464 0 53.408 17.472 63.568 43.936h-127.128c10.152-26.472 35.104-43.936 63.56-43.936zM640.432 663.952c39.696 0 72 32.296 72 72s-32.304 72-72 72-72-32.296-72-72 32.296-72 72-72zM640.432 759.096c12.76 0 23.144-10.384 23.144-23.144s-10.384-23.144-23.144-23.144-23.144 10.384-23.144 23.144 10.384 23.144 23.144 23.144zM511.88 343.96c52.016 0 95.152 40.040 103.096 88.040h-206.184c7.944-48 51.072-88.040 103.088-88.040zM640.432 232.44c-39.696 0-72-32.296-72-72s32.304-72 72-72 72 32.296 72 72-32.304 72-72 72zM640.432 136.168c-12.76 0-23.144 10.384-23.144 23.144s10.384 23.144 23.144 23.144 23.144-10.384 23.144-23.144-10.392-23.144-23.144-23.144zM647.312 432c-8.176-64-65.736-120.040-135.424-120.040s-127.256 56.040-135.432 120.040h-208.456v-428.344c0-37.096 30.032-67.656 67.12-67.656h180.304c0.032 0 0.184 3.056 0.624 4.488 13.032 42.624 51.536 71.36 95.8 71.36 44.272 0 82.768-28.784 95.808-71.408 0.44-1.432 0.592-4.44 0.624-4.44h180.808c37.088 0 66.92 30.56 66.92 67.656v428.344h-208.696zM384.424 56.44c-57.344 0-104 46.656-104 104s46.656 104 104 104 104-46.656 104-104-46.648-104-104-104zM640.432 56.44c-57.344 0-104 46.656-104 104s46.656 104 104 104 104-46.656 104-104-46.656-104-104-104zM384.424 232.44c-39.696 0-72-32.296-72-72s32.304-72 72-72 72 32.296 72 72-32.296 72-72 72zM384.424 136.168c-12.76 0-23.144 10.384-23.144 23.144s10.384 23.144 23.144 23.144 23.144-10.384 23.144-23.144-10.384-23.144-23.144-23.144z" />
<glyph unicode="&#xe911;" glyph-name="Filled_128px_Hockey-Puck" d="M1024.072 567.856c0 145.832-224.88 260.064-511.968 260.064s-511.968-114.232-511.968-260.064c0-2.12 0.152-4.208 0.24-6.312-0.112-0.504-0.376-0.976-0.376-1.504v-236.432c0-140.896 229.704-255.528 512-255.528s512 114.632 512 255.528v236.432c0 0.528-0.168 1-0.264 1.504 0.096 2.104 0.336 4.2 0.336 6.312zM512.104 779.928c251.504 0 463.976-97.12 463.976-212.072s-212.48-212.064-463.976-212.064-463.976 97.112-463.976 212.064 212.472 212.072 463.976 212.072z" />
<glyph unicode="&#xe912;" glyph-name="Filled_128px_Hockey-Stick" d="M967.672 192.576c-0.36 0-0.672-0.576-1.024-0.576h-308.872l-137.776 137.080v-1.080h0.68l-479.696 480.624c-9.064 9.072-24.704 9.336-33.76 0.28-4.536-4.536-6.936-10.424-6.936-16.832 0-6.416 2.544-12.368 7.080-16.904l687.728-687.664c4.528-4.528 10.568-7.456 16.984-7.456 0.664 0 1.256-0.048 1.864-0.048h253.728c30.904 0 56.040 25.392 56.040 56.288 0 30.904-25.136 56.288-56.040 56.288z" />
<glyph unicode="&#xe913;" glyph-name="Filled_128px_Iceskate" d="M992.008 181.536c-17.64 0-31.992-14.4-31.992-32.040 0-33.872-27.56-61.496-61.432-61.496h-154.584v112h137.216c39.064 0 70.784 32.056 70.784 71.12v17.184c0 42.376-34.488 87.696-110.344 87.696h-56.992c-110.968 0-324.832 227.96-344.832 249.552l-48.216 239.952c-0.416 2.080-1.648 3.936-3.416 5.112-1.76 1.168-3.928 1.592-6 1.192l-288-57.928c-3.736-0.744-6.2-4.032-6.2-7.84v-286.16c-24-24.296-32-54.376-32-85.080v-163.16c0-46.024 22.984-71.64 64.512-71.64h31.488v-112h-120.008c-17.64 0-31.992-14.36-31.992-32s14.352-32 31.992-32h866.592c69.16 0 125.416 56.336 125.416 125.488 0 17.64-14.352 32.048-31.992 32.048zM648 200v-112h-400v112h400z" />
<glyph unicode="&#xe914;" glyph-name="Filled_128px_inline-Skate" d="M1023.872 182.52c0.104 0.496 0.048 0.992 0.056 1.504 0.008 0.52 0.088 1.032 0 1.544s-0.352 0.984-0.544 1.48c-0.176 0.456 0.416 0.92 0.152 1.352-0.056 0.096 0.472 0.176 0.472 0.264v-4.664h-0.712c-23.664 40-60.896 66.72-103.144 76.976 19.384 12.656 31.856 36.848 31.856 61.672v17.184c-0.008 42.384-34.4 84.168-110.288 84.168h-57c-111 0-324.92 229.8-344.936 251.392l-48.216 240.904c-0.416 2.080-1.648 4.376-3.416 5.56-1.768 1.168-3.936 1.816-6.008 1.416l-288.016-57.84c-3.736-0.752-6.128-3.912-6.128-7.72v-286.232c-24-24.288-32-54.392-32-85.104v-163.2c0-32.176 11.2-54.216 32.12-64.584-35.504-12.464-66.176-36.68-86.808-69.896l-0.008-0.008c0-0.008 0-0.008 0-0.008-0.056-0.096-0.128-0.176-0.184-0.272-0.264-0.432-0.328-0.896-0.496-1.352-0.192-0.496-0.456-0.96-0.544-1.48-0.096-0.512-0.016-1.024 0-1.544 0.008-0.504-0.048-1.008 0.056-1.504 0.112-0.512 0.368-0.96 0.576-1.448 0.2-0.464 0.336-0.944 0.616-1.368 0.296-0.432 0.728-0.76 1.112-1.136 0.336-0.336 0.584-0.744 1-1.016l27.224-18.456c-9.208-17.648-14.496-37.656-14.496-58.896 0-70.504 57.36-127.872 127.872-127.872 55 0 101.856 34.968 119.872 83.784 18.016-48.816 64.88-83.784 119.872-83.784 60.16 0 110.608 41.808 124.168 97.848 13.56-56.048 64.008-97.848 124.168-97.848 55 0 101.856 34.968 119.872 83.784 18.016-48.816 64.88-83.784 119.872-83.784 70.512 0 127.872 57.368 127.872 127.872 0 19.624-4.576 38.16-12.504 54.792 0.040 0.032 0.088 0.040 0.128 0.064l33.192 22.496c0.408 0.272 0.656 0.68 1 1.016 0.384 0.376 0.824 0.704 1.112 1.136 0.288 0.424 0.416 0.904 0.616 1.368 0.224 0.48 0.48 0.928 0.592 1.44zM144.040 44.32c-30.824 0-55.896 25.072-55.896 55.888s25.072 55.896 55.896 55.896 55.896-25.080 55.896-55.896-25.072-55.888-55.896-55.888zM383.792 44.32c-30.824 0-55.896 25.072-55.896 55.888s25.072 55.896 55.896 55.896 55.896-25.080 55.896-55.896-25.072-55.888-55.896-55.888zM632.128 44.32c-30.824 0-55.896 25.072-55.896 55.888s25.072 55.896 55.896 55.896c30.824 0 55.896-25.080 55.896-55.896s-25.072-55.888-55.896-55.888zM871.88 44.32c-30.824 0-55.896 25.072-55.896 55.888s25.072 55.896 55.896 55.896c30.824 0 55.896-25.080 55.896-55.896s-25.080-55.888-55.896-55.888z" />
<glyph unicode="&#xe915;" glyph-name="Filled_128px_Medal" d="M887.408 942.712c-1.656 6.192-5.608 11.36-11.144 14.536-5.512 3.208-11.952 4.096-18.144 2.44-6.2-1.656-11.392-5.608-14.6-11.16l-330.632-571.88c-0.584 0.016-1.16-0.032-1.736-0.032l-330.656 571.92c-4.272 7.384-12.224 11.96-20.76 11.96-4.2 0-8.344-1.12-11.968-3.224-5.536-3.192-9.504-8.36-11.16-14.552-1.648-6.168-0.8-12.624 2.408-18.168l330.68-571.936c-4.064-6.872-6.312-14.6-6.648-22.664-0.92-22.032 8.952-41.28 32.952-48.152v-9.896c-88-8.080-151.752-80.568-151.752-167.552 0-92.392 75-168.352 167.392-168.352h0.016c92.392 0 167.752 75.976 167.752 168.352 0 87-63.408 159.48-151.408 167.552v9.984c8 2.152 11.872 5.472 16.888 10.072 9.584 8.832 15.088 20.864 15.632 33.888 0.392 9.328-1.928 18.336-6.464 26.232l330.96 572.472c3.208 5.536 4.040 11.992 2.392 18.16zM568.112 105.144c0-31.128-25.328-56.448-56.456-56.448-31.136 0-56.456 25.32-56.456 56.448s25.32 56.456 56.456 56.456c31.128 0 56.456-25.328 56.456-56.456z" />
<glyph unicode="&#xe916;" glyph-name="Filled_128px_Parachute" d="M531.912-52.56c0.048 0.072 0.088 0.16 0.144 0.224 0.016 0.032 0.040 0.048 0.064 0.080 13.048 20.032 319.752 492.592 319.752 672.096 0 187.408-152.464 339.872-339.856 339.872-187.408 0-339.872-152.472-339.872-339.872 0-179.504 306.72-652.064 319.768-672.096 0.024-0.032 0.048-0.048 0.072-0.080 0.048-0.072 0.088-0.16 0.136-0.232l0.016-0.016c0.416-0.608 0.904-1.144 1.368-1.704 0.256-0.328 0.496-0.672 0.776-0.984 0.192-0.2 0.392-0.416 0.584-0.616 0.208-0.208 0.432-0.4 0.648-0.608 0.264-0.248 0.544-0.472 0.824-0.712 0.376-0.328 0.712-0.696 1.112-1 0.088-0.064 0.176-0.112 0.264-0.168 0.136-0.096 0.28-0.168 0.416-0.264 0.44-0.312 0.904-0.592 1.36-0.872 0.328-0.2 0.64-0.44 0.968-0.624 0.064-0.032 0.128-0.080 0.184-0.12 0.16-0.088 0.328-0.152 0.496-0.232 0.304-0.16 0.624-0.288 0.936-0.432 0.432-0.192 0.864-0.376 1.312-0.552 0.656-0.248 1.312-1.264 1.976-1.464 0.232-0.064 0.44-1.048 0.68-1.048 0.008 0 0.016 0 0.024 0 0.152 0 0.32 0.776 0.472 0.736 0.344-0.080 0.68-0.2 1.024-0.264 1.456-0.28 2.936-0.48 4.456-0.48h0.032c1.512 0 3 0.6 4.456 0.88 0.352 0.064 0.68-0.44 1.024-0.36 0.168 0.040 0.336-0.512 0.496-0.512h0.016c0.216 0 0.416 0.984 0.64 1.040 0.672 0.192 1.336 0.816 1.992 1.064 0.464 0.184 0.896 0.576 1.352 0.776 0.296 0.144 0.608 0.36 0.904 0.504 0.168 0.088 0.344 0.208 0.496 0.296 0.072 0.040 0.128 0.104 0.192 0.144 0.328 0.176 0.624 0.432 0.944 0.624 0.472 0.288 0.936 0.576 1.392 0.896 0.136 0.104 0.288 0.184 0.424 0.288 0.096 0.064 0.192 0.12 0.28 0.184 0.376 0.288 0.704 0.648 1.064 0.96 0.28 0.232 0.56 0.464 0.832 0.712 0.216 0.208 0.44 0.408 0.656 0.616 0.184 0.2 0.384 0.408 0.576 0.616 0.28 0.32 0.52 0.664 0.8 1 0.44 0.536 0.904 1.056 1.312 1.64-0.024 0.024 0 0.040 0.016 0.064zM687.12 544.2c0.048 0.184 0.048 0.376 0.088 0.56 0.176 0.784 0.256 1.584 0.368 2.4 0.112 0.832 0.232 1.656 0.248 2.488 0 0.184 0.056 0.36 0.056 0.544 0 28.696 23.32 52.040 51.984 52.040 28.672 0 52-23.344 52-52.040 0-0.168 0.040-0.312 0.048-0.48-35.176-124.72-141.24-314.896-217.32-442.224l112.528 436.712zM536 150.168v403.344c0 27.152 24.28 48.72 51.84 48.72 27.832 0 50.552-21.984 51.896-49.496l-103.736-402.568zM488 548.528v-398.728l-104.032 402.944c1.344 27.504 24.064 49.496 51.872 49.496 28.672 0 51.992-23.344 51.992-52.040 0-0.576 0.168-1.112 0.168-1.672zM335.896 549.64c0.016-0.824 0.144-1.632 0.248-2.464 0.104-0.824 0.184-1.64 0.376-2.432 0.040-0.184 0.032-0.368 0.080-0.552l112.704-436.496c-76.256 127.624-182.544 318.264-217.464 442.896 0.208 28.504 23.432 51.64 51.96 51.64 28.696 0 52.040-23.344 52.040-52.040 0-0.184 0.056-0.36 0.056-0.552z" />
<glyph unicode="&#xe917;" glyph-name="Filled_128px_Shuttlecock" d="M939.472 950.24c-4.512 5.952-11.664 9.76-19.136 9.76h-816.56c-7.472 0-14.624-3.808-19.136-9.76-4.504-5.96-5.992-13.936-3.928-21.224l224.056-759.504c2.16-7.608 7.232-13.56 15.232-16.128v-25.040c0-106.056 85.936-192.344 192-192.344s192 86.288 192 192.344v25.040c8 2.56 13.144 8.44 15.264 15.976l224.064 759.752c2.032 7.192 0.648 15.168-3.856 21.128zM328.536 912h159.464v-712h-50.664l-108.8 712zM345.792 200l-210.176 712h144.408l108.792-712h-43.024zM635.296 200l108.792 712h144.408l-210.176-712h-43.024zM536 200v712h159.568l-108.784-712h-50.784z" />
<glyph unicode="&#xe918;" glyph-name="Filled_128px_Skateboard" d="M1018.32 546.16c-5.96 8.768-15.864 14-26.48 14-6.44 0-12.656-2.096-17.984-5.736-32.448-22.096-75.656-34.424-121.656-34.424h-680.76c-45.832 0-88.904 12.248-121.312 34.2-5.312 3.576-11.512 5.568-17.904 5.568-10.656 0-20.56-5.2-26.512-14.016-4.8-7.064-6.544-15.568-4.936-23.96 1.616-8.392 6.16-15.648 13.232-20.448 42.152-28.544 97.992-44.368 153.992-44.904v-14.080c-16-9.016-31.752-28.24-31.752-50.52 0-30.872 25.248-56 56.128-56s55.816 25.128 55.816 56c0 22.28-16.184 41.504-32.184 50.52v13.64h592v-12.952c-16-9.016-31.8-28.24-31.8-50.52 0-30.872 25.216-56 56.112-56 30.872 0 55.84 25.128 55.84 56 0 22.28-16.16 41.504-32.16 50.52v13.44c56 0.752 111.76 16.664 153.68 45.216 7.064 4.808 11.928 12.088 13.52 20.48 1.6 8.4-0.072 16.912-4.88 23.976z" />
<glyph unicode="&#xe919;" glyph-name="Filled_128px_Soccer-Field" d="M511.4 553c-52.344 0-95.696-38.72-103.232-89h206.472c-7.544 50.28-50.896 89-103.24 89zM375.832 464c7.736 67.984 65.544 121 135.568 121s127.832-53.016 135.568-121h209.032v428.536c0 37.096-30.312 67.464-67.408 67.464h-108.592v-136c0-8.832-8.184-16-17.032-16h-45.48c-17.304-43.576-58.832-72.232-106.136-72.232-47.296 0-88.816 28.656-106.128 72.232h-45.504c-8.816 0-15.72 7.168-15.72 16v136h-109.36c-37.096 0-66.64-30.368-66.64-67.464v-428.536h207.832zM511.36 767.768c29.536 0 55.968 15.568 70.592 40.232h-141.168c14.624-24.664 41.048-40.232 70.576-40.232zM376 960h272v-120h-272v120zM511.4 343.96c52.008 0 95.152 38.232 103.088 88.040h-206.176c7.936-49.808 51.080-88.040 103.088-88.040zM646.832 432c-8.176-67.52-65.736-120.040-135.432-120.040s-127.248 52.52-135.432 120.040h-207.968v-428.536c0-37.088 29.544-67.464 66.64-67.464h109.36v136c0 8.832 6.904 16 15.736 16h45.488c17.304 43.576 58.832 72.232 106.128 72.232s88.832-28.656 106.128-72.232h45.504c8.84 0 17.032-7.168 17.032-16v-136h108.592c37.096 0 67.408 30.368 67.408 67.464v428.536h-209.184zM511.344 128.232c-29.528 0-55.952-15.568-70.576-40.232h141.168c-14.632 24.664-41.056 40.232-70.592 40.232zM376 56h272v-120h-272v120z" />
<glyph unicode="&#xe91a;" glyph-name="Filled_128px_Soccerball" d="M512 960c-282.312 0-512-229.68-512-512s229.688-512 512-512 512 229.68 512 512-229.688 512-512 512zM918.128 223.824l-178.64-58.464-83.976 135.648 64.688 199.112 148.968 36.064 104.264-137.12c-6.616-63.008-25.944-122.264-55.304-175.24zM50.832 397l105.032 139.176 147.936-36.056 64.672-199.040-92.616-135.864-168.144 55.416c-30.040 53.208-49.912 112.856-56.88 176.368zM854.768 760.456l-0.328-178.496-148.84-36.032-169.6 123.224v144.96l167.76 56.288c57.56-26.232 108.896-63.776 151.008-109.944zM319.12 869.896l168.88-55.888v-144.864l-169.6-123.216-147.824 36.024-0.328 168.44c0 3.104-0.928 5.984-2.48 8.44 42.112 46.6 93.584 84.544 151.352 111.064zM413.592-5.432l-99.096 141.688 92.864 135.744h209.112l84.16-135.456-99.52-144.144c-28.856-5.64-58.624-8.56-89.112-8.56-33.768 0-66.672 3.84-98.408 10.728z" />
<glyph unicode="&#xe91b;" glyph-name="Filled_128px_Sports" d="M87.168 481.832c-30.248-41.056-55.184-86.176-74.24-134.4-17.704-44.832-17.208-81.336 1.448-108.768 17.432-25.64 50.56-38.664 90.896-38.664h621.6c-38.56 8-78.88 12.952-119.872 22.472-244.464 56.8-418.664 142.696-519.832 259.36zM100.584 518.496c220.24-275.504 813.816-316.016 923.416-321.176-9.232 278.4-238.592 502.016-519.192 502.016-228.432 0-397.712-93.832-443.344-121.992 10.824-20.064 23.512-39.12 37.752-57.12 0.488-0.56 0.952-1.12 1.368-1.728z" />
<glyph unicode="&#xe91c;" glyph-name="Filled_128px_Table-Tennis-Paddle-Ball" d="M1012.384 56.088c-0.424 1.36-1.216 2.592-2.296 3.568l-226.288 202.976c122.6 163.736 99.16 386.2-58.208 543.56-84.952 84.952-199.176 140.040-313.392 151.152-120.024 11.64-229.064-24.848-307.032-102.816-128.6-128.592-138.856-345.64-27.744-524.368-1.128-4.16-2.144-8.36-2.944-12.664-1.808-9.664-2.72-19.576-2.72-29.472 0-88.24 71.784-160.024 160.024-160.024 19.648 0 38.392 3.728 55.8 10.232 138.112-66.168 289-52.656 409.488 37.656l202.976-226.288c0.832-0.92 1.936-1.544 3.136-1.92 8.472-7.336 19.496-11.152 31.968-11.152 3.688 0 7.504 0.336 11.416 1.008 17.344 3 34.712 12.472 48.92 26.672s23.672 31.576 26.672 48.92c2.912 16.92-0.552 32.016-9.776 42.96zM119.76 288.024c0 6.952 0.64 13.904 1.904 20.68 9.864 52.928 56.176 91.344 110.12 91.344 61.768 0 112.024-50.256 112.024-112.024s-50.256-112.024-112.024-112.024-112.024 50.256-112.024 112.024z" />
<glyph unicode="&#xe91d;" glyph-name="Filled_128px_Target-Seeker-30" d="M710.296 424h-174.296v-174.304c88 10.896 163.344 86.304 174.296 174.304zM758.608 424c-11.36-120-102.608-211.312-222.608-222.608v-264.456c264 12.16 474.84 223.064 487.064 487.064h-264.456zM488 249.728v174.272h-174.296c10.936-88 86.296-163.264 174.296-174.272zM265.392 424h-264.456c12.224-264 223.064-474.776 487.064-487.048v264.464c-120 11.408-211.264 102.584-222.608 222.584zM488 646.288c-88-11.008-163.36-86.288-174.296-174.288h174.296v174.288zM488 694.6v264.456c-264-12.272-474.84-223.056-487.064-487.056h264.456c11.344 120 102.608 211.192 222.608 222.6zM758.608 472h264.456c-12.224 264-223.064 474.92-487.064 487.064v-264.44c120-11.296 211.248-102.624 222.608-222.624zM536 646.32v-174.32h174.296c-10.952 88-86.296 163.424-174.296 174.32z" />
<glyph unicode="&#xe91e;" glyph-name="Filled_128px_Target-Seeker-31" d="M368.104 472h-344.112c-13.232 0-23.992-10.776-23.992-24 0-13.232 10.76-24 23.992-24h344.112c13.232 0 24 10.768 24 24 0 13.224-10.768 24-24 24zM1000 472h-344.112c-13.232 0-23.992-10.776-23.992-24 0-13.232 10.76-24 23.992-24h344.112c13.232 0 24 10.768 24 24 0 13.224-10.76 24-24 24zM512 328.112c-13.224 0-24-10.768-24-24v-344.12c0-13.224 10.776-23.992 24-23.992 13.232 0 24 10.768 24 23.992v344.12c0 13.232-10.768 24-24 24zM512 960c-13.224 0-24-10.768-24-24v-344.112c0-13.224 10.776-23.984 24-23.984 13.232 0 24 10.76 24 23.984v344.112c0 13.232-10.768 24-24 24zM511.84 472.152c-13.32 0-24.16-10.832-24.16-24.152s10.84-24.16 24.16-24.16 24.152 10.832 24.152 24.16c0 13.312-10.832 24.152-24.152 24.152z" />
<glyph unicode="&#xe91f;" glyph-name="Filled_128px_Tennis-Racket-Ball" d="M1010.288 30.088l-116.576 116.576c-8.8 8.8-20.544 13.648-33.064 13.648-2.408 0-4.784-0.232-7.12-0.592l-123.128 123.136c114.568 146.36 86.72 378.352-70.68 535.76-81.256 81.264-184.576 130.816-290.92 139.536-106.864 8.776-203.96-24.68-273.448-94.176-143.088-143.096-122.744-396.264 45.36-564.368 3.448-3.448 6.984-6.824 10.536-10.176-0.008-0.56-0.080-1.128-0.080-1.688 0-88.24 71.784-160.024 160.024-160.024 37.48 0 71.912 13.040 99.208 34.696 18.352-2.48 36.52-3.768 54.392-3.768 80.16 0 154.304 24.744 213.208 71.536l122.76-122.76c-0.408-2.512-0.664-5.072-0.664-7.672 0-12.52 4.848-24.256 13.648-33.056l116.576-116.576c8.8-8.8 20.544-13.648 33.064-13.648s24.264 4.848 33.064 13.648l13.84 13.84c18.232 18.232 18.232 47.896 0 66.128zM67.832 526.96l38.104-38.104-18.112-18.112c-8.16 18.512-14.84 37.312-19.992 56.216zM123.528 813.168l57.448-57.448-66.392-66.4-40.792 40.792c11.384 30.28 27.896 58.384 49.736 83.056zM230.168 885.888l40.488-40.48-67.056-67.056-57.448 57.44c24.936 22.072 53.376 38.688 84.016 50.096zM381.624 901.656c0.664-2.76 2.024-5.384 4.184-7.536l62.696-62.696-59.304-59.304-73.296 73.296 54.376 54.376c0.896 0.896 1.632 1.888 2.272 2.92 3.016-0.32 6.040-0.664 9.072-1.056zM605.64 795.008l-37.736-37.736-74.152 74.152 25.224 25.224c30.36-16.424 59.568-36.984 86.664-61.64zM732.144 593.024l-45.92 45.92 20.808 20.808c10.496-21.88 18.872-44.232 25.112-66.728zM676.904 305.048l-66.584 66.584 67.056 67.048 49.616-49.616c-11.408-30.632-28.016-59.072-50.088-84.016zM571.352 232.552l-50.056 50.056 66.4 66.4 66.584-66.584c-24.4-21.64-52.352-38.328-82.928-49.872zM57.576 578.576c-0.344 2.736-0.664 5.472-0.944 8.208 1.032 0.64 2.016 1.368 2.912 2.264l55.032 55.032 73.288-73.296-59.304-59.304-62.696 62.688c-2.352 2.36-5.248 3.824-8.288 4.408zM736.832 543.384l-59.456-59.448-73.080 73.080 59.304 59.304 71.616-71.616c0.504-0.504 1.064-0.896 1.616-1.32zM581.672 534.384l73.080-73.080-67.056-67.056-73.080 73.080 67.056 67.056zM491.992 489.96l-73.080 73.072 67.056 67.056 73.080-73.080-67.056-67.048zM581.672 579.64l-73.080 73.080 59.304 59.304 73.080-73.080-59.304-59.304zM485.968 675.336l-74.152 74.152 59.304 59.304 74.152-74.152-59.304-59.304zM463.344 652.712l-67.056-67.056-74.152 74.152 67.056 67.048 74.152-74.144zM373.664 563.032l-66.4-66.392-74.152 74.144 66.4 66.4 74.152-74.152zM299.512 682.44l-73.296 73.288 67.056 67.056 73.296-73.296-67.056-67.048zM276.888 659.816l-66.4-66.4-73.296 73.288 66.4 66.4 73.296-73.288zM210.496 548.168l74.152-74.152-41.344-41.352c-7.976-3.744-15.592-8.144-22.808-13.104l-69.304 69.304 59.304 59.304zM307.264 451.384l3.64-3.64c-2.56-0.008-5.080-0.216-7.616-0.336l3.976 3.976zM366.024 437.872l-36.136 36.144 66.4 66.392 73.080-73.072-56.296-56.296c-13.888 11.488-29.816 20.52-47.048 26.832zM491.992 444.712l73.080-73.080-66.4-66.4-37.336 37.336c-6.112 16.68-14.808 32.12-25.792 45.68l56.448 56.464zM471.2 287.456l4.848-4.848-5.36-5.36c0.216 3.384 0.504 6.76 0.512 10.208zM453.416 214.728l45.256 45.256 37.976-37.976c-26.496-6.296-54.52-9.048-83.632-8.12 0.144 0.28 0.264 0.568 0.4 0.84zM737.448 423.856l-37.448 37.456 45.456 45.456c0.904-28.384-1.76-56.24-8.008-82.912zM663.6 661.568l-73.080 73.080 37.968 37.976c24.824-25.984 45.832-54.024 62.848-83.312l-27.736-27.744zM471.128 854.040l-37.008 37.008c18.32-5.080 36.52-11.64 54.472-19.544l-17.464-17.464zM293.28 868.032l-28.32 28.32c20.944 4.912 42.624 7.6 64.72 8.088l-36.4-36.408zM63.232 695.416l28.72-28.712-37.056-37.056c0.496 22.472 3.272 44.504 8.336 65.768zM128.56 466.232l67.488-67.488c-12.088-12.52-22.2-26.992-29.736-43.056l-2-2c-24.656 27.096-45.216 56.304-61.64 86.664l25.888 25.88zM199.168 287.736c0 6.952 0.64 13.904 1.896 20.672 9.864 52.928 56.176 91.344 110.128 91.344 61.768 0 112.024-50.256 112.024-112.024s-50.256-112.016-112.024-112.016-112.024 50.256-112.024 112.024z" />
<glyph unicode="&#xe920;" glyph-name="Filled_128px_TennisBall" d="M319.328 255.32c-84.632 84.64-196.76 135.232-316.728 143.416 10.952-114.24 60.064-225.48 147.36-312.776 85-85 194.624-136.392 312.784-147.6-8.128 120.048-58.728 232.28-143.416 316.96zM705.192 641.184c84.48-84.48 196.408-135.056 316.144-143.352-11.048 114.040-60.144 225.056-147.296 312.208-84.864 84.864-194.28 136.248-312.224 147.552 8.248-119.84 58.84-231.864 143.376-316.408zM133.448 792.656c-89.024-97.664-133.432-221.712-133.176-345.704 133.64-7.752 258.8-63.552 352.96-157.72 94.224-94.224 150.040-219.472 157.728-353.2 0.352 0 0.696-0.024 1.048-0.024 128.736 0 250.2 47.224 344.672 133.424l-723.232 723.224zM671.288 607.272c-94.088 94.088-149.888 219.152-157.704 352.688-0.528 0-1.048 0.040-1.576 0.040-128.744 0-250.2-47.224-344.68-133.424l723.24-723.24c89.144 97.816 133.544 222.080 133.16 346.264-133.44 7.864-258.408 63.648-352.44 157.672z" />
<glyph unicode="&#xe921;" glyph-name="Filled_128px_Trophy" d="M850.496 851.944c-12.064 17.792-33.24 28.056-58.104 28.056h-56.832l3.28 16h4.728c13.232 0 24.432 10.352 24.432 23.584v16.248c0 13.24-11.2 24.168-24.432 24.168h-463.456c-13.24 0-24.112-10.928-24.112-24.168v-16.248c0-13.232 10.872-23.584 24.112-23.584h3.504l3.272-16h-55.28c-24.864 0-46.040-10.264-58.104-28.056-12.064-17.8-13.704-41.272-4.504-64.376l80.128-201.048c16.656-41.808 64.968-74.52 109.984-74.52h14.984c23.96-32 65.904-62.816 105.904-70v-346h-8.264c-21.944 0-39.688-17.768-39.872-39.672-13.216-0.024-23.864-10.776-23.864-23.992v-40.336h-16.392c-13.232 0-23.608-10.6-23.608-23.832v-24.080c0-4.424 3.192-8.088 7.608-8.088h272.496c4.416 0 7.888 3.664 7.888 8.088v24.080c0 13.232-10.656 23.832-23.888 23.832h-16.104v40.336c0 13.216-10.936 23.968-24.152 23.992-0.176 21.904-18.216 39.672-40.16 39.672h-7.688v346.136c40 7.424 80.48 37.864 104.304 69.864h16.592c45.008 0 93.328 32.696 109.984 74.504l80.128 201.096c9.192 23.104 7.552 46.552-4.512 64.344zM293.72 604.208l-80.128 201.096c-3.216 8.072-3.352 15.288-0.36 19.696s9.688 7 18.376 7h65.288l56.624-271.72c-24.152 2.704-51.072 22.016-59.8 43.928zM512.224 615.44c-53.016 0-96 42.984-96 96s42.984 96 96 96 96-42.984 96-96-42.976-96-96-96zM810.408 805.304l-80.128-201.096c-8.92-22.392-36.832-42.080-61.376-44.072l56.648 271.864h66.832c8.688 0 15.384-2.592 18.376-7 3-4.408 2.864-11.624-0.352-19.696z" />
<glyph unicode="&#xe922;" glyph-name="Filled_128px_Volleyball" d="M1001.368 598.512c-4.664 0.272-9.296 1.84-13.264 4.912-142.112 110.096-304.656 186.128-483.424 226.408-4.28-48.072-5.592-96.44-3.936-144.712 194.232-41.464 369.952-123.144 522.952-243.152 0.032 2.064 0.168 4.104 0.168 6.168-0.008 52.344-7.904 102.824-22.496 150.376zM842.248 259.856c-39.48 27.76-80.688 53.096-123.296 75.832-131.528-145.832-288.096-256.352-466.056-328.92 44.96-26.44 94.296-46.184 146.688-57.936 2.488 3.24 5.736 5.952 9.784 7.632 164.392 68.016 309.856 170.072 432.88 303.392zM459.896 863.84c0.016 0.032 0.032 0.064 0.032 0.096 3.624 31.728 8.496 63.272 14.592 94.552-59.552-4.312-116.264-18.768-168.424-41.72-0.032-1.088-0.024-2.176-0.2-3.296-30.672-188.904-16.64-378.6 41.512-564.36 47.504 32.456 92.544 68.384 134.6 107.384-15.176 66.968-24.6 135.376-28.224 204.152-0.448 2.104-0.504 4.304-0.36 6.528-3.080 64.832-0.976 129.904 6.232 194.336 0.096 0.776 0.088 1.552 0.24 2.328zM1015.696 386.992c-148.872 122.232-321.088 205.68-512.216 248.464 4.352-56.824 12.84-113.272 25.424-168.696 66.144-20.448 130.624-46.704 192.472-78.24 1.936-0.648 3.776-1.648 5.528-2.8 56.92-29.384 111.528-63.248 163.112-101.128 1.44-0.816 2.832-1.776 4.12-2.92 0.12-0.096 0.192-0.224 0.304-0.328 26.128-19.36 51.44-39.76 75.872-61.128 25.168 50.528 42.192 105.8 49.456 164.128-1.424 0.744-2.792 1.592-4.072 2.648zM881.144 231.28c-114.36-124.928-247.664-223.648-397.168-294.192 9.288-0.496 18.616-0.8 28.032-0.8 183.232 0 343.888 96.352 434.32 241.088-21.056 18.736-42.792 36.728-65.184 53.904zM206.864 40.136c178.824 67.896 335.992 174.864 467.712 318.024-51.832 24.896-105.448 45.944-160.232 62.864-50.792-47.072-105.808-89.816-164.080-127.64-1.496-1.328-3.224-2.384-5.072-3.328-53.936-34.632-110.616-65-169.232-90.744-1.416-0.832-2.928-1.544-4.552-2.088-0.12-0.040-0.24-0.048-0.36-0.096-27.88-12.096-56.184-23.12-84.832-33.064 32.144-48.080 72.168-90.408 118.296-125.128 0.776 0.416 1.512 0.88 2.352 1.2zM134.248 233.688c-50.384 159.512-69.416 322.28-56.712 485.024-48.992-78.504-77.4-171.192-77.4-270.56 0-87.528 22.024-169.912 60.752-241.968 24.728 8.336 49.208 17.496 73.36 27.504zM131.776 776.856c-22.752-175.464-6.984-351.544 46.68-523.816 43.776 20.304 86.32 43.36 127.304 68.904-60.528 186.864-77.968 377.744-51.816 568.192-46.424-27.168-88.2-61.392-123.816-101.272 1.504-3.696 2.192-7.768 1.648-12.008zM509.968 877.808c168.24-37.2 322.728-104.936 460.32-201.712-82.208 164.968-250.792 279.2-446.56 283.616-5.56-27.104-10.16-54.424-13.76-81.904z" />
<glyph unicode="&#xe923;" glyph-name="Filled_128px_Weights-01" d="M980.76 616c-0.088 0-0.184 0-0.272 0-0.032 0-0.192 0-0.208 0-0.088 0-0.208 0-0.32 0-10.368 0-19.96-3.544-27.96-9.72v106.544c0 48.104-38.48 87.176-86.912 87.176-0.104 0-0.208 0-0.32 0-0.096 0-0.464 0-0.512 0-0.144 0-0.296 0-0.448 0-48.408 0-87.808-39.040-87.808-87.176v-184.824h-528v184.824c0 48.104-39.152 87.176-87.584 87.176-0.104 0-0.208 0-0.32 0-0.104 0-0.456 0-0.512 0-0.152 0-0.296 0-0.448 0-48.408 0-87.136-39.040-87.136-87.176v-106.552c-8 6.16-17.352 9.728-27.712 9.728-0.088 0-0.184 0-0.272 0-0.032 0-0.192 0-0.208 0-0.088 0-0.208 0-0.32 0-23.848 0-43.488-19.336-43.488-43.232v-248.376c0-23.904 19.64-44.392 43.496-44.392 0.072 0 0.152 0 0.224 0h0.296c0.072 0 0.152 0 0.224 0 10.368 0 19.76 4.696 27.76 10.872v-107.376c0-48.136 38.728-87.496 87.144-87.496 0.096 0 0.192 0 0.288 0h0.672c0.096 0 0.192 0 0.288 0 48.408 0 87.608 39.36 87.608 87.496v184.504h528v-184.504c0-48.136 39.4-87.496 87.816-87.496 0.096 0 0.192 0 0.288 0h0.672c0.056 0 0.104 0 0.16 0 0.12 0-0.144-0.248-0.024-0.24 48.312 0.624 87.088 39.68 87.088 87.736v107.376c8-6.176 17.592-10.872 27.96-10.872 0.072 0 0.152 0 0.224 0h0.296c0.048 0 0.104 0 0.16 0 0.112 0 0.232 0 0.344 0 23.728 0 43.008 20.584 43.008 44.384v248.384c0.008 23.856-19.368 43.232-43.232 43.232z" />
<glyph unicode="&#xe924;" glyph-name="Filled_128px_Weights-02" d="M951.624 608h-111c-39.696 0-72.624-31.968-72.624-71.664v-4.032c-168 26.048-344 25.984-512-0.184v4.216c0 39.696-31.72 71.664-71.424 71.664h-112c-39.696 0-72.576-31.968-72.576-71.664v-176.664c0-39.704 32.88-71.672 72.576-71.672h112c39.704 0 71.424 31.968 71.424 71.672v4.216c168-26.168 344-26.24 512-0.184v-4.032c0-39.704 32.928-71.672 72.624-71.672h111c39.696 0 72.376 31.968 72.376 71.672v176.664c0 39.696-32.672 71.664-72.376 71.664z" />
<glyph unicode="&#xe925;" glyph-name="Filled_128px_Whistle" d="M1012.288 238.8l-466.288 466.28c-60.408 60.416-140.72 93.68-226.16 93.68-85.432 0-165.744-33.264-226.16-93.68-60.4-60.408-93.672-140.72-93.672-226.16 0-85.432 33.264-165.744 93.672-226.152 60.408-60.416 140.728-93.68 226.16-93.68 85.016 0 164.976 32.952 225.288 92.816 0.048 0.040 0.088 0.088 0.136 0.136 25.912 25.912 60.368 40.184 97.016 40.184s71.104-14.272 97.016-40.176l143.12-143.128c7.528-7.528 17.576-11.68 28.288-11.68 10.704 0 20.752 4.152 28.28 11.68l73.304 73.304c15.6 15.6 15.6 40.976 0 56.576zM495.328 303.448c-46.872-46.872-109.192-72.688-175.48-72.688s-128.608 25.816-175.48 72.688-72.696 109.192-72.696 175.48c0 66.28 25.816 128.6 72.688 175.48s109.192 72.688 175.48 72.688 128.608-25.816 175.48-72.688c96.76-96.76 96.76-254.208 0.008-350.96z" />
<glyph unicode="&#xe926;" glyph-name="Filled_128px_Winning-Places" d="M1000 207.688v177.248c8 3.36 16 12.128 16 22.48v16.248c0 13.232-10.744 24.336-23.984 24.336h-287.872c-13.232 0-24.144-11.104-24.144-24.336v-16.248c0-10.352 8-19.12 16-22.48v-176.936h-32v497.504c8 3.328 16 12.112 16 22.496v16.248c0 13.24-10.624 23.752-23.856 23.752h-287.872c-13.24 0-24.272-10.512-24.272-23.752v-16.248c0-10.328 8-19.064 16-22.448v-497.552h-40v337.52c8 3.36 16 12.12 16 22.48v16.248c0 13.24-10.704 23.752-23.944 23.752h-287.872c-13.232 0-24.184-10.512-24.184-23.752v-16.248c0-10.36 8-19.12 16-22.48v-339.312c-8-3.312-16-12.112-16-22.52v-47.624c0-4.424 3.6-8.064 8.016-8.064h1008.168c4.416 0 7.816 3.64 7.816 8.064v47.624c0 13.232-8 24-24 24z" />
<glyph unicode="&#xe927;" glyph-name="Filled_128px-29" d="M807.832 424c-13.256 0-24 10.744-24 24s10.744 24 24 24h215.424c-12.208 264-223.256 475.112-487.256 487.264v-215.296c0-13.256-10.752-24-24-24s-24 10.744-24 24v215.28c-264-12.272-475.048-223.248-487.248-487.248h215.152c13.256 0 24-10.744 24-24s-10.744-24-24-24h-215.152c12.2-264 223.248-474.976 487.248-487.248v215.28c0 13.256 10.752 24 24 24s24-10.744 24-24v-215.296c264 12.152 475.048 223.264 487.256 487.264h-215.424z" />
<glyph unicode="&#xe928;" glyph-name="Filled_128px_Baseball-Bat-Ball2" d="M1016.784 43.928l-5.424 5.416c-9.096 9.096-23.688 9.272-33.096 0.688l-334.032 334.032c-18.856 18.856-41.968 53.072-60.528 80.56-5.352 7.928-10.352 15.336-14.824 21.728l-29.632 42.464c-20.408 29.256-57.552 73.584-82.784 98.816l-311.128 311.136c-28.072 28.072-73.752 28.072-101.824 0l-22.304-22.304c-13.552-13.544-21.008-31.632-21.008-50.912 0-19.288 7.464-37.36 21.008-50.912l170.136-170.136c-38.896-9.472-69.832-40.864-77.432-81.632-1.168-6.264-1.76-12.688-1.76-19.104 0-57.208 46.544-103.752 103.752-103.752 48.744 0 89.632 33.832 100.696 79.216l15.728-15.736c25.216-25.216 69.544-62.352 98.816-82.784l42.464-29.64c6.4-4.464 13.824-9.48 21.768-14.84 27.48-18.56 61.672-41.656 80.52-60.504l334.032-334.032c-4.040-4.416-6.328-10.072-6.328-16.128 0-6.424 2.496-12.456 7.008-16.976l5.424-5.424c4.52-4.52 10.544-7.008 16.968-7.008s12.456 2.496 16.968 7.008l66.8 66.8c9.376 9.368 9.376 24.6 0.016 33.96zM215.904 472.024c-39.568 0-71.752 32.184-71.752 71.752 0 4.456 0.408 8.912 1.216 13.248 6.32 33.904 35.984 58.504 70.536 58.504 39.56 0 71.752-32.184 71.752-71.752s-32.184-71.752-71.752-71.752z" />
</font>
</defs>
</svg>
