<?xml version="1.0" encoding="utf-8"?>
<!-- Generator: Adobe Illustrator 19.0.0, SVG Export Plug-In . SVG Version: 6.00 Build 0)  -->
<svg version="1.1" id="Layer_1" xmlns="http://www.w3.org/2000/svg" xmlns:xlink="http://www.w3.org/1999/xlink" x="0px" y="0px"
	 viewBox="0 0 254 282" style="enable-background:new 0 0 254 282;" xml:space="preserve">
<style type="text/css">
	.st0{fill:none;stroke:#000000;stroke-width:4;stroke-miterlimit:10;}
	.st1{fill:#FFFFFF;stroke:#000000;stroke-width:4;stroke-miterlimit:10;}
	.st2{fill:#FCFCFC;stroke:#000000;stroke-width:4;stroke-miterlimit:10;}
</style>
<g id="XMLID_204_">
	<path id="XMLID_1_" class="st0" d="M4.6,200.4L4.9,83c0-7.3,3.9-14.1,10.3-17.7L117.1,6.8c6.4-3.6,14.2-3.6,20.5,0.1l101.6,59
		c6.3,3.7,10.2,10.5,10.2,17.8l-0.3,117.5c0,7.3-3.9,14.1-10.3,17.7l-101.9,58.5c-6.4,3.6-14.2,3.6-20.5-0.1l-101.6-59
		C8.5,214.5,4.6,207.8,4.6,200.4z"/>
	<circle id="XMLID_2_" class="st0" cx="127.5" cy="142.5" r="84.3"/>
	<polyline id="XMLID_4_" class="st0" points="189,144 124,144 125,144 125,77 	"/>
</g>
<g id="XMLID_205_">
	<path id="XMLID_8_" class="st1" d="M303.5,200.4l0.3-117.5c0-7.3,3.9-14.1,10.3-17.7L416,6.7c6.4-3.6,14.2-3.6,20.5,0.1l101.6,59
		c6.3,3.7,10.2,10.5,10.2,17.8L548,201.1c0,7.3-3.9,14.1-10.3,17.7l-101.9,58.5c-6.4,3.6-14.2,3.6-20.5-0.1l-101.6-59
		C307.3,214.5,303.5,207.7,303.5,200.4z"/>
	<path id="XMLID_7_" class="st1" d="M406.8,135.3h-48.9c-6.6,0-12-5.4-12-12v-41c0-6.6,5.4-12,12-12h48.9c6.6,0,12,5.4,12,12v41
		C418.8,129.9,413.4,135.3,406.8,135.3z"/>
	<path id="XMLID_11_" class="st1" d="M406.8,211.8h-48.9c-6.6,0-12-5.4-12-12v-41c0-6.6,5.4-12,12-12l48.9,2c6.6,0,12,3.4,12,10v41
		C418.8,206.4,413.4,211.8,406.8,211.8z"/>
	<path id="XMLID_10_" class="st1" d="M493.8,135.3h-48.9c-6.6,0-12-5.4-12-12v-41c0-6.6,5.4-12,12-12h48.9c6.6,0,12,5.4,12,12v41
		C505.8,129.9,500.4,135.3,493.8,135.3z"/>
	<path id="XMLID_12_" class="st1" d="M493.8,213.8h-48.9c-6.6,0-12-5.4-12-12v-41c0-6.6,5.4-12,12-12h48.9c6.6,0,12,5.4,12,12v41
		C505.8,208.4,500.4,213.8,493.8,213.8z"/>
</g>
<g id="XMLID_206_">
	<path id="XMLID_13_" class="st1" d="M576.8,200.4l0.3-117.5c0-7.3,3.9-14.1,10.3-17.7L689.3,6.7c6.4-3.6,14.2-3.6,20.5,0.1
		l101.6,59c6.3,3.7,10.2,10.5,10.2,17.8l-0.3,117.5c0,7.3-3.9,14.1-10.3,17.7l-101.9,58.5c-6.4,3.6-14.2,3.6-20.5-0.1l-101.6-59
		C580.6,214.5,576.8,207.7,576.8,200.4z"/>
	<path id="XMLID_18_" class="st2" d="M766.6,109.4c0-37.4-30.3-67.6-67.6-67.6s-67.6,30.3-67.6,67.6c0,12.2,3.3,23.7,8.9,33.6
		c0.1,0.6,0.4,1.2,0.7,1.8l53.2,90.8c2.7,4.7,10.1,4.6,12.7-0.2l50.8-92.1c0.2-0.3,0.3-0.7,0.4-1
		C763.5,132.5,766.6,121.3,766.6,109.4z"/>
	<circle id="XMLID_9_" class="st2" cx="698.2" cy="103" r="37.8"/>
</g>
<g id="XMLID_219_">
	<path id="XMLID_223_" class="st0" d="M-99,509.4l0.3-117.5c0-7.3,3.9-14.1,10.3-17.7l101.9-58.5c6.4-3.6,14.2-3.6,20.5,0.1
		l101.6,59c6.3,3.7,10.2,10.5,10.2,17.8L145.5,510c0,7.3-3.9,14.1-10.3,17.7L33.3,586.2c-6.4,3.6-14.2,3.6-20.5-0.1l-101.6-59
		C-95.1,523.5-99,516.7-99,509.4z"/>
	<circle id="XMLID_222_" class="st0" cx="23.9" cy="451.5" r="84.3"/>
	<line id="XMLID_221_" class="st0" x1="21" y1="453" x2="21" y2="386"/>
	<line id="XMLID_220_" class="st0" x1="20" y1="453" x2="85" y2="453"/>
</g>
<g id="XMLID_213_">
	<path id="XMLID_218_" class="st1" d="M316.5,517.4l0.3-117.5c0-7.3,3.9-14.1,10.3-17.7L429,323.7c6.4-3.6,14.2-3.6,20.5,0.1
		l101.6,59c6.3,3.7,10.2,10.5,10.2,17.8L561,518.1c0,7.3-3.9,14.1-10.3,17.7l-101.9,58.5c-6.4,3.6-14.2,3.6-20.5-0.1l-101.6-59
		C320.3,531.5,316.5,524.7,316.5,517.4z"/>
	<path id="XMLID_217_" class="st1" d="M419.8,452.3h-48.9c-6.6,0-12-5.4-12-12v-41c0-6.6,5.4-12,12-12h48.9c6.6,0,12,5.4,12,12v41
		C431.8,446.9,426.4,452.3,419.8,452.3z"/>
	<path id="XMLID_216_" class="st1" d="M419.8,528.8h-48.9c-6.6,0-12-5.4-12-12v-41c0-6.6,5.4-12,12-12l48.9,2c6.6,0,12,3.4,12,10v41
		C431.8,523.3,426.4,528.8,419.8,528.8z"/>
	<path id="XMLID_215_" class="st1" d="M506.8,452.3h-48.9c-6.6,0-12-5.4-12-12v-41c0-6.6,5.4-12,12-12h48.9c6.6,0,12,5.4,12,12v41
		C518.8,446.9,513.4,452.3,506.8,452.3z"/>
	<path id="XMLID_214_" class="st1" d="M506.8,530.8h-48.9c-6.6,0-12-5.4-12-12v-41c0-6.6,5.4-12,12-12h48.9c6.6,0,12,5.4,12,12v41
		C518.8,525.3,513.4,530.8,506.8,530.8z"/>
</g>
<g id="XMLID_208_">
	<path id="XMLID_212_" class="st1" d="M589.8,517.4l0.3-117.5c0-7.3,3.9-14.1,10.3-17.7l101.9-58.5c6.4-3.6,14.2-3.6,20.5,0.1
		l101.6,59c6.3,3.7,10.2,10.5,10.2,17.8l-0.3,117.5c0,7.3-3.9,14.1-10.3,17.7l-101.9,58.5c-6.4,3.6-14.2,3.6-20.5-0.1l-101.6-59
		C593.6,531.5,589.8,524.7,589.8,517.4z"/>
	<path id="XMLID_211_" class="st2" d="M779.6,426.4c0-37.4-30.3-67.6-67.6-67.6s-67.6,30.3-67.6,67.6c0,12.2,3.3,23.7,8.9,33.6
		c0.1,0.6,0.4,1.2,0.7,1.8l53.2,90.8c2.7,4.7,10.1,4.6,12.7-0.2l50.8-92.1c0.2-0.3,0.3-0.7,0.4-1
		C776.5,449.5,779.6,438.3,779.6,426.4z"/>
	<circle id="XMLID_209_" class="st2" cx="711.2" cy="420" r="37.8"/>
</g>
</svg>
