<?xml version="1.0" encoding="utf-8"?>
<!-- Generator: Adobe Illustrator 19.0.0, SVG Export Plug-In . SVG Version: 6.00 Build 0)  -->
<svg version="1.1" id="Layer_1" xmlns:x="&ns_extend;" xmlns:i="&ns_ai;" xmlns:graph="&ns_graphs;"
	 xmlns="http://www.w3.org/2000/svg" xmlns:xlink="http://www.w3.org/1999/xlink" x="0px" y="0px" viewBox="0 0 255.8 286.9"
	 style="enable-background:new 0 0 255.8 286.9;" xml:space="preserve">
<metadata>
	<sfw  xmlns="&ns_sfw;">
		<slices></slices>
		<sliceSourceBounds  height="286.9" width="255.8" y="-400.2" x="331.3" bottomLeftOrigin="true"></sliceSourceBounds>
	</sfw>
</metadata>
<g id="XMLID_206_">
	<g id="XMLID_76_">
		<g id="XMLID_77_">
			<path id="XMLID_78_" d="M127.9,287.5c-4.6,0-9.1-1.2-13.1-3.5L13.2,225c-8-4.7-13-13.3-13-22.6L0.6,84.9c0-9.3,5-17.9,13.1-22.5
				L115.5,4c8-4.6,18-4.6,26,0.1l101.6,59c8,4.7,13,13.3,13,22.6l-0.3,117.5c0,9.3-5,17.9-13.1,22.5L140.8,284
				C136.9,286.3,132.4,287.5,127.9,287.5z M128.5,11.5c-2.6,0-5.2,0.7-7.5,2L19.1,72c-4.6,2.7-7.5,7.6-7.5,13l-0.3,117.5
				c0,5.3,2.9,10.3,7.5,13l101.6,59c4.6,2.7,10.4,2.7,15,0L237.2,216c4.6-2.7,7.5-7.6,7.5-13l0.3-117.5c0-5.3-2.9-10.3-7.5-13
				L136,13.6C133.7,12.2,131.1,11.5,128.5,11.5z"/>
		</g>
	</g>
	<g id="XMLID_71_">
		<g id="XMLID_72_">
			<path id="XMLID_73_" d="M129.6,250.2h-0.1c-5.8,0-9.6-5.7-11-8l-53.2-91.8c-0.5-0.8-0.8-1.9-1.1-2.9c-6.1-10.9-9.3-23.3-9.3-35.9
				c0-40.4,32.8-73.2,73.1-73.2s73.1,32.8,73.1,73.1c0,12.3-3.1,24.4-9,35.1c-0.2,0.5-0.4,0.9-0.6,1.3l-50.8,94
				C139.6,243.8,135.7,250.2,129.6,250.2z M128,49.2c-34.3,0-62.1,27.9-62.1,62.1c0,10.8,2.8,21.5,8.2,30.9l0.4,0.7l0.2,0.8
				c0,0.1,0,0.1,0.1,0.2l53.2,92.6c0.6,1,1,1.6,1.3,2c0.8-0.7,1.4-1.4,1.8-2l50.6-92.7c0,0,0,0,0,0c0.1-0.2,0.1-0.5,0.2-0.7l0.2-0.9
				l0.2-0.4c5.1-9.2,7.8-19.7,7.8-30.3C190.1,77.2,162.3,49.2,128,49.2z"/>
		</g>
	</g>
	<g id="XMLID_66_">
		<g id="XMLID_67_">
			<path id="XMLID_68_" d="M127.2,148.3c-23.9,0-43.3-19.4-43.3-43.3s19.4-43.3,43.3-43.3s43.3,19.4,43.3,43.3
				S151.1,148.3,127.2,148.3z M127.2,72.7c-17.8,0-32.3,14.5-32.3,32.3s14.5,32.3,32.3,32.3s32.3-14.5,32.3-32.3
				S145,72.7,127.2,72.7z"/>
		</g>
	</g>
</g>
</svg>
