<?xml version="1.0" encoding="utf-8"?>
<!-- Generator: Adobe Illustrator 19.0.0, SVG Export Plug-In . SVG Version: 6.00 Build 0)  -->
<svg version="1.1" id="Layer_1" xmlns="http://www.w3.org/2000/svg" xmlns:xlink="http://www.w3.org/1999/xlink" x="0px" y="0px"
	 viewBox="0 0 254 283" style="enable-background:new 0 0 254 283;" xml:space="preserve">
<style type="text/css">
	.st0{fill:none;stroke:#000000;stroke-width:4;stroke-miterlimit:10;}
</style>
<g id="XMLID_212_">
	<rect id="XMLID_208_" y="0.5" class="st0" width="150.3" height="282"/>
	<rect id="XMLID_209_" x="150.3" y="70.4" class="st0" width="103.7" height="212.1"/>
	<rect id="XMLID_211_" x="9.3" y="13.8" width="29.8" height="20.1"/>
	<rect id="XMLID_213_" x="58.6" y="13.8" width="29.8" height="20.1"/>
	<rect id="XMLID_214_" x="107.2" y="13.8" width="29.8" height="20.1"/>
	<rect id="XMLID_700_" x="164.8" y="77.7" width="29.8" height="20.1"/>
	<rect id="XMLID_701_" x="208.9" y="77.7" width="29.8" height="20.1"/>
	<rect id="XMLID_703_" x="164.9" y="105.3" width="29.8" height="20.1"/>
	<rect id="XMLID_702_" x="209" y="105.3" width="29.8" height="20.1"/>
	<rect id="XMLID_705_" x="164.9" y="134.2" width="29.8" height="20.1"/>
	<rect id="XMLID_704_" x="209" y="134.2" width="29.8" height="20.1"/>
	<rect id="XMLID_711_" x="164.8" y="163.3" width="29.8" height="20.1"/>
	<rect id="XMLID_710_" x="209" y="163.3" width="29.8" height="20.1"/>
	<rect id="XMLID_709_" x="165" y="192.1" width="29.8" height="20.1"/>
	<rect id="XMLID_708_" x="209.1" y="192.1" width="29.8" height="20.1"/>
	<rect id="XMLID_716_" x="165.2" y="220.8" width="29.8" height="20.1"/>
	<rect id="XMLID_715_" x="209.3" y="220.8" width="29.8" height="20.1"/>
	<rect id="XMLID_713_" x="165.2" y="249.1" width="29.8" height="20.1"/>
	<rect id="XMLID_712_" x="209.3" y="249.1" width="29.8" height="20.1"/>
	<rect id="XMLID_217_" x="9.7" y="47.4" width="29.8" height="20.1"/>
	<rect id="XMLID_216_" x="59" y="47.4" width="29.8" height="20.1"/>
	<rect id="XMLID_215_" x="107.6" y="47.4" width="29.8" height="20.1"/>
	<rect id="XMLID_220_" x="10" y="81.7" width="29.8" height="20.1"/>
	<rect id="XMLID_219_" x="59.3" y="81.7" width="29.8" height="20.1"/>
	<rect id="XMLID_218_" x="107.9" y="81.7" width="29.8" height="20.1"/>
	<rect id="XMLID_223_" x="10" y="114" width="29.8" height="20.1"/>
	<rect id="XMLID_222_" x="59.3" y="114" width="29.8" height="20.1"/>
	<rect id="XMLID_221_" x="107.9" y="114" width="29.8" height="20.1"/>
	<rect id="XMLID_690_" x="10" y="148.3" width="29.8" height="20.1"/>
	<rect id="XMLID_689_" x="59.3" y="148.3" width="29.8" height="20.1"/>
	<rect id="XMLID_688_" x="107.9" y="148.3" width="29.8" height="20.1"/>
	<rect id="XMLID_693_" x="10.4" y="182.6" width="29.8" height="20.1"/>
	<rect id="XMLID_692_" x="59.6" y="182.6" width="29.8" height="20.1"/>
	<rect id="XMLID_691_" x="108.2" y="182.6" width="29.8" height="20.1"/>
	<rect id="XMLID_696_" x="10.7" y="214.8" width="29.8" height="20.1"/>
	<rect id="XMLID_695_" x="60" y="214.8" width="29.8" height="20.1"/>
	<rect id="XMLID_694_" x="108.6" y="214.8" width="29.8" height="20.1"/>
	<rect id="XMLID_699_" x="11" y="249.1" width="29.8" height="20.1"/>
	<rect id="XMLID_698_" x="60.3" y="249.1" width="29.8" height="20.1"/>
	<rect id="XMLID_697_" x="108.9" y="249.1" width="29.8" height="20.1"/>
</g>
</svg>
