<?xml version="1.0" encoding="utf-8"?>
<!-- Generator: Adobe Illustrator 19.0.0, SVG Export Plug-In . SVG Version: 6.00 Build 0)  -->
<svg version="1.1" id="Layer_1" xmlns="http://www.w3.org/2000/svg" xmlns:xlink="http://www.w3.org/1999/xlink" x="0px" y="0px"
	 viewBox="0 0 254 283" style="enable-background:new 0 0 254 283;" xml:space="preserve">
<style type="text/css">
	.st0{fill:#FFFFFF;stroke:#000000;stroke-width:13;stroke-miterlimit:10;}
</style>
<g id="XMLID_205_">
	<path id="XMLID_70_" class="st0" d="M4.6,199.9L4.9,82.4c0-7.3,3.9-14.1,10.3-17.7L117.1,6.2c6.4-3.6,14.2-3.6,20.5,0.1l101.6,59
		c6.3,3.7,10.2,10.5,10.2,17.8l-0.3,117.5c0,7.3-3.9,14.1-10.3,17.7l-101.9,58.5c-6.4,3.6-14.2,3.6-20.5-0.1l-101.6-59
		C8.5,214,4.6,207.2,4.6,199.9z"/>
	<path id="XMLID_69_" class="st0" d="M107.9,134.8H59.1c-6.6,0-12-5.4-12-12v-41c0-6.6,5.4-12,12-12h48.9c6.6,0,12,5.4,12,12v41
		C119.9,129.4,114.5,134.8,107.9,134.8z"/>
	<path id="XMLID_68_" class="st0" d="M107.9,211.3H59.1c-6.6,0-12-5.4-12-12v-41c0-6.6,5.4-12,12-12l48.9,2c6.6,0,12,3.4,12,10v41
		C119.9,205.9,114.5,211.3,107.9,211.3z"/>
	<path id="XMLID_67_" class="st0" d="M194.9,134.8h-48.9c-6.6,0-12-5.4-12-12v-41c0-6.6,5.4-12,12-12h48.9c6.6,0,12,5.4,12,12v41
		C206.9,129.4,201.5,134.8,194.9,134.8z"/>
	<path id="XMLID_66_" class="st0" d="M194.9,213.3h-48.9c-6.6,0-12-5.4-12-12v-41c0-6.6,5.4-12,12-12h48.9c6.6,0,12,5.4,12,12v41
		C206.9,207.9,201.5,213.3,194.9,213.3z"/>
</g>
</svg>
