<?xml version="1.0" encoding="utf-8"?>
<!-- Generator: Adobe Illustrator 19.0.0, SVG Export Plug-In . SVG Version: 6.00 Build 0)  -->
<svg version="1.1" id="Layer_1" xmlns:x="&ns_extend;" xmlns:i="&ns_ai;" xmlns:graph="&ns_graphs;"
	 xmlns="http://www.w3.org/2000/svg" xmlns:xlink="http://www.w3.org/1999/xlink" x="0px" y="0px" viewBox="0 0 255.8 286.9"
	 style="enable-background:new 0 0 255.8 286.9;" xml:space="preserve">
<metadata>
	<sfw  xmlns="&ns_sfw;">
		<slices></slices>
		<sliceSourceBounds  height="286.9" width="255.8" y="-400.2" x="331.1" bottomLeftOrigin="true"></sliceSourceBounds>
	</sfw>
</metadata>
<g id="XMLID_204_">
	<g id="XMLID_115_">
		<g id="XMLID_116_">
			<path id="XMLID_117_" d="M127.7,287.5c-4.6,0-9.1-1.2-13.1-3.5L13.1,225c-8-4.7-13-13.3-13-22.6L0.4,84.9c0-9.3,5-17.9,13.1-22.5
				L115.4,4c8-4.6,18-4.6,26,0.1l101.6,59c8,4.7,13,13.3,13,22.6l-0.3,117.5c0,9.3-5,17.9-13.1,22.5L140.6,284
				C136.7,286.3,132.2,287.5,127.7,287.5z M128.3,11.5c-2.6,0-5.2,0.7-7.5,2L19,72c-4.6,2.7-7.5,7.6-7.5,13l-0.3,117.5
				c0,5.3,2.9,10.3,7.5,13l101.6,59c4.6,2.7,10.4,2.7,15,0L237,216c4.6-2.7,7.5-7.6,7.5-13l0.3-117.5c0-5.3-2.9-10.3-7.5-13
				l-101.6-59C133.6,12.2,131,11.5,128.3,11.5z"/>
		</g>
	</g>
	<g id="XMLID_84_">
		<g id="XMLID_85_">
			<path id="XMLID_112_" d="M128.5,234.3c-49.5,0-89.8-40.3-89.8-89.8S79,54.7,128.5,54.7s89.8,40.3,89.8,89.8
				S178,234.3,128.5,234.3z M128.5,65.7c-43.4,0-78.8,35.3-78.8,78.8s35.3,78.8,78.8,78.8s78.8-35.3,78.8-78.8
				S171.9,65.7,128.5,65.7z"/>
		</g>
	</g>
	<g id="XMLID_81_">
		<g id="XMLID_82_">
			<polygon id="XMLID_83_" points="190,155.2 118,155.2 118,153.2 117,153.2 117,79.2 128,79.2 128,144.2 190,144.2 			"/>
		</g>
	</g>
</g>
</svg>
